<mxfile host="Electron" agent="Mozilla/5.0 (Macintosh; Intel Mac OS X 10_15_7) AppleWebKit/537.36 (KHTML, like Gecko) draw.io/26.2.15 Chrome/134.0.6998.205 Electron/35.2.1 Safari/537.36" version="26.2.15">
  <diagram name="Page-1" id="VX6zUv3pn16QVCP_pWYf">
    <mxGraphModel dx="2591" dy="1171" grid="1" gridSize="10" guides="1" tooltips="1" connect="1" arrows="1" fold="1" page="1" pageScale="1" pageWidth="850" pageHeight="1100" math="0" shadow="0">
      <root>
        <mxCell id="0" />
        <mxCell id="1" parent="0" />
        <mxCell id="yK1BvCWjgx7OJvuE3ETC-7" value="" style="sketch=0;points=[[0,0,0],[0.25,0,0],[0.5,0,0],[0.75,0,0],[1,0,0],[0,1,0],[0.25,1,0],[0.5,1,0],[0.75,1,0],[1,1,0],[0,0.25,0],[0,0.5,0],[0,0.75,0],[1,0.25,0],[1,0.5,0],[1,0.75,0]];outlineConnect=0;fontColor=#232F3E;fillColor=#8C4FFF;strokeColor=#ffffff;dashed=0;verticalLabelPosition=bottom;verticalAlign=top;align=center;html=1;fontSize=12;fontStyle=0;aspect=fixed;shape=mxgraph.aws4.resourceIcon;resIcon=mxgraph.aws4.api_gateway;" vertex="1" parent="1">
          <mxGeometry x="320" y="160" width="80" height="80" as="geometry" />
        </mxCell>
        <mxCell id="yK1BvCWjgx7OJvuE3ETC-9" value="request" style="edgeStyle=orthogonalEdgeStyle;rounded=0;orthogonalLoop=1;jettySize=auto;html=1;entryX=0;entryY=0.5;entryDx=0;entryDy=0;entryPerimeter=0;exitX=1;exitY=0.5;exitDx=0;exitDy=0;" edge="1" parent="1" source="yK1BvCWjgx7OJvuE3ETC-53" target="yK1BvCWjgx7OJvuE3ETC-7">
          <mxGeometry x="0.0032" relative="1" as="geometry">
            <mxPoint x="121.75474909395052" y="200" as="sourcePoint" />
            <mxPoint as="offset" />
          </mxGeometry>
        </mxCell>
        <mxCell id="yK1BvCWjgx7OJvuE3ETC-10" value="route requires&lt;div&gt;authorization&lt;/div&gt;" style="edgeStyle=orthogonalEdgeStyle;rounded=0;orthogonalLoop=1;jettySize=auto;html=1;entryX=0;entryY=0.5;entryDx=0;entryDy=0;" edge="1" parent="1" source="yK1BvCWjgx7OJvuE3ETC-7" target="yK1BvCWjgx7OJvuE3ETC-17">
          <mxGeometry relative="1" as="geometry">
            <mxPoint x="520" y="200" as="targetPoint" />
          </mxGeometry>
        </mxCell>
        <mxCell id="yK1BvCWjgx7OJvuE3ETC-14" value="" style="shape=image;verticalLabelPosition=bottom;labelBackgroundColor=default;verticalAlign=top;aspect=fixed;imageAspect=0;image=data:image/png,iVBORw0KGgoAAAANSUhEUgAAAzIAAAF0CAYAAAD4qwx1AAAMQWlDQ1BJQ0MgUHJvZmlsZQAASImVVwdYU8kWnluSkJCEEkBASuhNEJASQEoILYD0ItgISYBQQgwEFTu6qODaxQI2dFVEsQNiR+wsig37YkFFWRcLduVNCui6r3xvvm/u/PefM/85c+7MvXcA0DjBk0hyUU0A8sSF0rjQQObolFQmqRtggA6oQAe48PgFEnZMTCSAZaD9e3l3AyDy9qqjXOuf/f+1aAmEBXwAkBiI0wUF/DyIDwCAV/El0kIAiHLeYlKhRI5hBTpSGCDE8+U4U4mr5DhdifcobBLiOBC3AKBG5fGkmQDQL0OeWcTPhBr0XoidxQKRGAANJsR+eXn5AojTILaFNhKI5fqs9B90Mv+mmT6oyeNlDmLlXBRFLUhUIMnlTfk/0/G/S16ubMCHNazULGlYnHzOMG83c/Ij5JgKcY84PSoaYm2IP4gECnuIUUqWLCxRaY8a8Qs4MGdAD2JnAS8oAmIjiEPEuVGRKj49QxTChRiuEHSyqJCbALE+xPOFBcHxKpuN0vw4lS+0PkPKYav4czypwq/c131ZTiJbpf86S8hV6WP04qyEZIgpEFsWiZKiIKZD7FSQEx+hshlZnMWJGrCRyuLk8VtCHCcUhwYq9bGiDGlInMq+LK9gYL7YxiwRN0qF9xVmJYQp84O18HmK+OFcsMtCMTtxQEdYMDpyYC4CYVCwcu7YM6E4MV6l80FSGBinHItTJLkxKnvcXJgbKufNIXYrKIpXjcWTCuGCVOrjGZLCmARlnHhxNi88RhkPvgREAg4IAkwggzUd5INsIGrraeiBd8qeEMADUpAJhMBRxQyMSFb0iOE1HhSDPyESgoLBcYGKXiEogvzXQVZ5dQQZit4ixYgc8ATiPBABcuG9TDFKPOgtCTyGjOgf3nmw8mG8ubDK+/89P8B+Z9iQiVQxsgGPTI0BS2IwMYgYRgwh2uGGuB/ug0fCawCsrjgL9xqYx3d7whNCO+Eh4Tqhk3BrgqhE+lOUo0An1A9R5SL9x1zg1lDTHQ/EfaE6VMb1cEPgiLtBP2zcH3p2hyxHFbc8K8yftP82gx+ehsqO7ExGyUPIAWTbn0fS7enugyryXP+YH2Ws6YP55gz2/Oyf80P2BbCN+NkSm4/tx85iJ7Hz2BGsATCx41gj1oodlePB1fVYsboGvMUp4smBOqJ/+Bt4svJMFjjXOnc7f1H2FQony9/RgJMvmSIVZWYVMtnwiyBkcsV8p2FMV2dXdwDk3xfl6+tNrOK7gei1fufm/AGA7/H+/v7D37nw4wDs9YTb/9B3zpYFPx3qAJw7xJdJi5QcLr8Q4FtCA+40A2ACLIAtnI8r8AA+IAAEg3AQDRJAChgPo8+C61wKJoFpYDYoBeVgCVgJ1oINYDPYDnaBfaABHAEnwRlwEVwG18EduHq6wAvQC96BzwiCkBAawkAMEFPECnFAXBEW4ocEI5FIHJKCpCGZiBiRIdOQOUg5sgxZi2xCapC9yCHkJHIeaUduIQ+QbuQ18gnFUCqqgxqj1uhwlIWy0Qg0AR2HZqIT0WJ0LroIXY1WozvRevQkehG9jnaiL9A+DGDqmB5mhjliLIyDRWOpWAYmxWZgZVgFVo3VYU3wOV/FOrEe7CNOxBk4E3eEKzgMT8T5+ER8Br4QX4tvx+vxFvwq/gDvxb8RaAQjggPBm8AljCZkEiYRSgkVhK2Eg4TTcC91Ed4RiUQ9og3RE+7FFGI2cSpxIXEdcTfxBLGd+IjYRyKRDEgOJF9SNIlHKiSVktaQdpKOk66Qukgf1NTVTNVc1ULUUtXEaiVqFWo71I6pXVF7qvaZrEm2InuTo8kC8hTyYvIWchP5ErmL/JmiRbGh+FISKNmU2ZTVlDrKacpdyht1dXVzdS/1WHWR+iz11ep71M+pP1D/SNWm2lM51LFUGXURdRv1BPUW9Q2NRrOmBdBSaYW0RbQa2inafdoHOoPuROfSBfSZ9Ep6Pf0K/aUGWcNKg60xXqNYo0Jjv8YljR5Nsqa1JkeTpzlDs1LzkGaHZp8WQ8tFK1orT2uh1g6t81rPtEna1trB2gLtudqbtU9pP2JgDAsGh8FnzGFsYZxmdOkQdWx0uDrZOuU6u3TadHp1tXXddJN0J+tW6h7V7dTD9Kz1uHq5eov19und0Ps0xHgIe4hwyIIhdUOuDHmvP1Q/QF+oX6a/W/+6/icDpkGwQY7BUoMGg3uGuKG9YazhJMP1hqcNe4bqDPUZyh9aNnTf0NtGqJG9UZzRVKPNRq1GfcYmxqHGEuM1xqeMe0z0TAJMsk1WmBwz6TZlmPqZikxXmB43fc7UZbKZuczVzBZmr5mRWZiZzGyTWZvZZ3Mb80TzEvPd5vcsKBYsiwyLFRbNFr2WppajLKdZ1lretiJbsayyrFZZnbV6b21jnWw9z7rB+pmNvg3Xptim1uauLc3W33aibbXtNTuiHcsux26d3WV71N7dPsu+0v6SA+rg4SByWOfQPowwzGuYeFj1sA5HqiPbscix1vGBk55TpFOJU4PTy+GWw1OHLx1+dvg3Z3fnXOctzndctF3CXUpcmlxeu9q78l0rXa+NoI0IGTFzROOIV24ObkK39W433Rnuo9znuTe7f/Xw9JB61Hl0e1p6pnlWeXawdFgxrIWsc14Er0CvmV5HvD56e3gXeu/z/svH0SfHZ4fPs5E2I4Ujt4x85Gvuy/Pd5Nvpx/RL89vo1+lv5s/zr/Z/GGARIAjYGvCUbcfOZu9kvwx0DpQGHgx8z/HmTOecCMKCQoPKgtqCtYMTg9cG3w8xD8kMqQ3pDXUPnRp6IowQFhG2NKyDa8zlc2u4veGe4dPDWyKoEfERayMeRtpHSiObRqGjwkctH3U3yipKHNUQDaK50cuj78XYxEyMORxLjI2JrYx9EucSNy3ubDwjfkL8jvh3CYEJixPuJNomyhKbkzSSxibVJL1PDkpeltw5evjo6aMvphimiFIaU0mpSalbU/vGBI9ZOaZrrPvY0rE3xtmMmzzu/HjD8bnjj07QmMCbsD+NkJactiPtCy+aV83rS+emV6X38jn8VfwXggDBCkG30Fe4TPg0wzdjWcazTN/M5ZndWf5ZFVk9Io5orehVdlj2huz3OdE523L6c5Nzd+ep5aXlHRJri3PELfkm+ZPz2yUOklJJ50TviSsn9kojpFsLkIJxBY2FOvBHvlVmK/tF9qDIr6iy6MOkpEn7J2tNFk9unWI/ZcGUp8Uhxb9NxafypzZPM5s2e9qD6ezpm2YgM9JnNM+0mDl3Ztes0FnbZ1Nm58z+vcS5ZFnJ2znJc5rmGs+dNffRL6G/1JbSS6WlHfN85m2Yj88XzW9bMGLBmgXfygRlF8qdyyvKvyzkL7zwq8uvq3/tX5SxqG2xx+L1S4hLxEtuLPVfun2Z1rLiZY+Wj1pev4K5omzF25UTVp6vcKvYsIqySraqc3Xk6sY1lmuWrPmyNmvt9crAyt1VRlULqt6vE6y7sj5gfd0G4w3lGz5tFG28uSl0U321dXXFZuLmos1PtiRtOfsb67earYZby7d+3Sbe1rk9bntLjWdNzQ6jHYtr0VpZbffOsTsv7wra1VjnWLdpt97u8j1gj2zP871pe2/si9jXvJ+1v+6A1YGqg4yDZfVI/ZT63oashs7GlMb2Q+GHmpt8mg4edjq87YjZkcqjukcXH6Mcm3us/3jx8b4TkhM9JzNPPmqe0Hzn1OhT11piW9pOR5w+dybkzKmz7LPHz/meO3Le+/yhC6wLDRc9Lta3urce/N3994NtHm31lzwvNV72utzUPrL92BX/KyevBl09c4177eL1qOvtNxJv3OwY29F5U3Dz2a3cW69uF93+fGfWXcLdsnua9yruG92v/sPuj92dHp1HHwQ9aH0Y//DOI/6jF48LHn/pmvuE9qTiqenTmmeuz450h3Rffj7medcLyYvPPaV/av1Z9dL25YG/Av5q7R3d2/VK+qr/9cI3Bm+2vXV729wX03f/Xd67z+/LPhh82P6R9fHsp+RPTz9P+kL6svqr3dembxHf7vbn9fdLeFKe4lcAgxXNyADg9TYAaCkAMOD5jDJGef5TFER5ZlUg8J+w8oyoKB4A1MH/99ge+HfTAcCeLfD4BfU1xgIQQwMgwQugI0YM1oGzmuJcKS9EeA7YGP01PS8d/JuiPHP+EPfPLZCruoGf238BoIF8bwqzkqAAAACWZVhJZk1NACoAAAAIAAUBEgADAAAAAQABAAABGgAFAAAAAQAAAEoBGwAFAAAAAQAAAFIBKAADAAAAAQACAACHaQAEAAAAAQAAAFoAAAAAAAAAkAAAAAEAAACQAAAAAQADkoYABwAAABIAAACEoAIABAAAAAEAAAMyoAMABAAAAAEAAAF0AAAAAEFTQ0lJAAAAU2NyZWVuc2hvdBzeyVAAAAAJcEhZcwAAFiUAABYlAUlSJPAAAALbaVRYdFhNTDpjb20uYWRvYmUueG1wAAAAAAA8eDp4bXBtZXRhIHhtbG5zOng9ImFkb2JlOm5zOm1ldGEvIiB4OnhtcHRrPSJYTVAgQ29yZSA2LjAuMCI+CiAgIDxyZGY6UkRGIHhtbG5zOnJkZj0iaHR0cDovL3d3dy53My5vcmcvMTk5OS8wMi8yMi1yZGYtc3ludGF4LW5zIyI+CiAgICAgIDxyZGY6RGVzY3JpcHRpb24gcmRmOmFib3V0PSIiCiAgICAgICAgICAgIHhtbG5zOmV4aWY9Imh0dHA6Ly9ucy5hZG9iZS5jb20vZXhpZi8xLjAvIgogICAgICAgICAgICB4bWxuczp0aWZmPSJodHRwOi8vbnMuYWRvYmUuY29tL3RpZmYvMS4wLyI+CiAgICAgICAgIDxleGlmOlVzZXJDb21tZW50PlNjcmVlbnNob3Q8L2V4aWY6VXNlckNvbW1lbnQ+CiAgICAgICAgIDxleGlmOlBpeGVsWERpbWVuc2lvbj44MTg8L2V4aWY6UGl4ZWxYRGltZW5zaW9uPgogICAgICAgICA8ZXhpZjpQaXhlbFlEaW1lbnNpb24+MzcyPC9leGlmOlBpeGVsWURpbWVuc2lvbj4KICAgICAgICAgPHRpZmY6UmVzb2x1dGlvblVuaXQ+MjwvdGlmZjpSZXNvbHV0aW9uVW5pdD4KICAgICAgICAgPHRpZmY6WFJlc29sdXRpb24+MTQ0LzE8L3RpZmY6WFJlc29sdXRpb24+CiAgICAgICAgIDx0aWZmOllSZXNvbHV0aW9uPjE0NC8xPC90aWZmOllSZXNvbHV0aW9uPgogICAgICAgICA8dGlmZjpPcmllbnRhdGlvbj4xPC90aWZmOk9yaWVudGF0aW9uPgogICAgICA8L3JkZjpEZXNjcmlwdGlvbj4KICAgPC9yZGY6UkRGPgo8L3g6eG1wbWV0YT4KcQo2PgAAQABJREFUeAHsnQd8VFX2x096r4Q0QkJI6KH3DoqCiiJFxb4W1rqurl13Lburq67719W1oeBixUVRRKSDFOk1oYVQkpCEhPRKOv97Xnxv3puWmcwkmUl+9/MZ3i3ntu+dDHPmnnuuS2Rk5CUyE9zd3c2UNl9UX1/fvBAkQAAEQAAEQAAEQAAEQAAEQMAKAq5WyEIUBEAABEAABEAABEAABEAABByCABQZh1gGDAIEQAAEQAAEQAAEQAAEQMAaAlBkrKEFWRAAARAAARAAARAAARAAAYcgAEXGIZYBgwABEAABEAABEAABEAABELCGABQZa2hBFgRAAARAAARAAARAAARAwCEIQJFxiGXAIEAABEAABEAABEAABEAABKwhAEXGGlqQBQEQAAEQAAEQAAEQAAEQcAgCUGQcYhkwCBAAARAAARAAARAAARAAAWsIQJGxhhZkQQAEQAAEQAAEQAAEQAAEHIIAFBmHWAYMAgRAAARAAARAAARAAARAwBoCUGSsoQVZEAABEAABEAABEAABEAABhyAARcYhlgGDAAEQAAEQAAEQAAEQAAEQsIYAFBlraEEWBEAABEAABEAABEAABEDAIQhAkXGIZcAgQAAEQAAEQAAEQAAEQAAErCEARcYaWpAFARAAARAAARAAARAAARBwCAJQZBxiGTAIEAABEAABEAABEAABEAABawhAkbGGFmRBAARAAARAAARAAARAAAQcggAUGYdYBgwCBEAABEAABEAABEAABEDAGgJQZKyhBVkQAAEQAAEQAAEQAAEQAAGHIABFxiGWAYMAARAAARAAARAAARAAARCwhgAUGWtoQRYEQAAEQAAEQAAEQAAEQMAhCECRcYhlwCBAAARAAARAAARAAARAAASsIQBFxhpakAUBEAABEAABEAABEAABEHAIAlBkHGIZMAgQAAEQAAEQAAEQAAEQAAFrCECRsYYWZEEABEAABEAABEAABEAABByCABQZh1gGDAIEQAAEQAAEQAAEQAAEQMAaAlBkrKEFWRAAARAAARAAARAAARAAAYcgAEXGIZYBgwABEAABEAABEAABEAABELCGABQZa2hBFgRAAARAAARAAARAAARAwCEIQJFxiGXAIEAABEAABEAABEAABEAABKwhAEXGGlqQBQEQAAEQAAEQAAEQAAEQcAgCUGQcYhkwCBAAARAAARAAARAAARAAAWsIQJGxhhZkQQAEQAAEQAAEQAAEQAAEHIIAFBmHWAYMAgRAAARAAARAAARAAARAwBoCUGSsoQVZEAABEAABEAABEAABEAABhyAARcYhlgGDAAEQAAEQAAEQAAEQAAEQsIYAFBlraEEWBEAABEAABEAABEAABEDAIQi4O8QoMAinJBDg40XzJw+mXlFh1K1LEDU0NlJeSQVlFZTQrtRMOnA6h+rqG5xybvqDvnXKUOoVHUZhgb707JI1VH6xRl+kxenAwC50/fUPUnb2Kdq48esWt4OKIAACIAACIAACINCZCLhERkZeMjdhd3fbdJ36+npzzXe6Mn/fIHr8zjdp9MDLKftCOi1c9lfae/QXp+MwY3gf+tttV1Kwn4/JsW9OPkW//89yk+XOVJC28ClluDe9/oWkpCkZNkTCwqKFEvMQ+fkFSa38/PMiSks7aEOLqAoCIAACIAACIAACnYMATMvaeJ2nj7+Jxg2eTm6u7hQbmUi/u/7pNh6B7d11Dwum1393lVklhns5m1dke2cduIXo6ASaN+8xRYnhqXp4eHXgGWNqIAACIAACIAACIGA/ArZtt9hvHJ2mpcTuAzRzTYjpT+7uHlRfX6fJN5UIDgyjJ3/3FsVF9aYAsbtzyzOjqPJimSnxVsl/Ys4k8vXyVNpetj2Zvtl+WDIjiwoJpDF9Y2nGsD508Mx5RcZekbBAP3rjrqslM68gXy8a/9QHdjXzstc4m2vH1zeAZs5cQF5euh2tPXvW0LFju5qrinIQAAEQAAEQAAEQAAFBAIpMG78N9hzZTJeNmq30ejhtp8VKDFfy8w6gEf0nK/VdXd2UeFtFkuIila5W7T1Oz322Rkkfy7xAGw+fole+2aTk2TPi7+1JEwfEK026uboocWeKXHbZzeTj468Mefv2FbR//3oljQgIgAAIgAAIgAAIgIB5AlBkzPOxe+n2Az/TZ+FxNCBhJJVVFNLS1e/bvY/WbNDLw51iwprOc3A/y7antGZ3HbLtvn1HUkLCIGVuR478CiVGoYEICIAACIAACIAACFhGAIqMZZzsJlVXX0tf/vRvu7XX1g1FhQSQq4tuFyT9QnFbD8Gp+3Nzc6dJk+YqcygrK6Rt275X0oiAAAiAAAiAAAiAAAhYRsCpFJkhfcfT8P4TqWtINAX4hdClS5fIT5jnFJTk0ulzx2jj7uWUX5Rj2cxbINXS/gf3HksJcUlGe6yrq6WVvywxWqbOnHPFAikZE95TnU3XTbmdLtZe1ORxYk/yRsrKO2OQ39KMu68YKVWNjwjRNHH92P50scbQM93nmw+YdL08eWBPGp7YjfrHhEsum8urayk1O582Hz5Np84XatqXE6b6v3XqUKP9b04+bdLZgJeHG00f2psSortQj/BQ4To6kBrEe6mssppyisrowKls2nE8g/LLKuXuNc/7rxojmNdTlwBfKZ/HfCQjl9YdPEllVebdMsfHJ2lMytav/4Jqa6s17SMBAiAAAiAAAiAAAiDQPAGncr/8+T92UbhQYkyF6poqWrziDVqxabEi8uRdb9G00U2/gC/58Z/01c/vKmXGIjMm3EyP3fa6VLR57w/02qJHFLGW9M+VH7jpZbp+6l1KO+oIH9Sf85hxJUctt/bDTHWy2fhri/9Am/esaFbOUgG1+2FL6gz7478NDuHzXTPssll9xkXdVp1w1f3m99vo0w17hZKqLiGytv8/fbKSVu45rmmEd5KuG92P/nT9JIoKDdSU6Sfe/H4LfbR6t5JtSf/ZhaX00Ic/0NGMPKWefuTaa++jnj0HStm5uen0zTdv6osgDQIgAAIgAAIgAAIgYAEBp3K/nFtg/su8t5cvPXjjSzSw1xhl6gXFOs9ZQQFdlHxTkWCVDO/0qENL+lfXb8t4bV37/crf0Ngg7bSo58vezFa+cKdJJYZlPcSdRc/eMJXumta0+6Oub228us5wl+gfwmX0P++e2awSw33tTcuytkvpUtClT95CIf46T2TqRvhwf48e/ZWsY8d0ipKSiQgIgAAIgAAIgAAIgIBFBJzKtIxNxw6n7qCjp/YJc7LzwqSoksJDY2j6uBtpxvj5yoTvnPUEPfHmPCmdW6j7QhoaFK7IuIhf5/m8AoeGhgaxA9AoxdUy+SoliAtb0r9Ub9d3dDL9kNQ+/xMf049uuOJ+JW1J5I1P/yiJhYg5LJjzvFLlg2UvU3mF9r6W2voa2nFonSJjj8gTi36Smuka7EdPz52qNPnKNxupuEJr2nZO7ExU1WjdSf/99ukU4OOt1Fu9/wQt3XqYCoT51she3elJ4dLZz7vpDpX7rxotyg5p2rCm/5r6BtpwKE3piyPXjepHc8Zqd762HjlLP+09RpkFJVQtmYr50ZCeUTRIeGVLNuM6mse+9sBJaewRwQF0+2XDaEh8006ht6cHsbnbf1bu0PTPicjIOJK9zDU01NPJk/sMZJABAiAAAiAAAiAAAiBgGQGnUmTWbF9qMKuC4lw6dnofNQpbpKuFWRgH9V0teQXnlDphwVFK/IqxN9DjdzSZ9Xy56m36bOX/SWVdQ3Qy+YXZijxHWtI/1zuZkSy9OM5hhFA8rFVkNu5uOhDeLTxeo8hs3LWcyiuLmxpuxX9X7D4mtd4jPESjyPyw6yiViLMl5sKM4X1oUlK8IvLOyu30ruqL/snsAjp+Lo+WPnUrsYIZ4u9Lc8cNJD5nIwdb+g/y86aXhUmbHNiE7f73vydWZPTD1iPNnyv674Z9dOC07izW6v2p9N1zt1G/mAipuVmj+htVZAICQpXuCgvPU02NVgFUChEBARAAARAAARAAARBoloBTmZaZm83qbV8qxT5efko8r0i3IxOmUlLGDLxckRmRpNthYEcCcsjJz5CjzT5N9d9sxU4gMLpPd2WWx7Mu0PurdippOcKKgVqJSIhq3gxQrtvcc6DYYfH/bbeHZf9vxXajSkxz7ZgqrxM7QMu2pSjFUaEBSlwdCQjQOUqoqGh95VPdN+IgAAIgAAIgAAIg0NEIONWODMP38vCm0YMup24R8dQlKJLc3T2oqCRPMjMztjjsxYy9m/Ev/V2DhbybhzDvcaVh/Scp4r1jB1FIYFcqLsunyLBYKZ/r5OSnKzJyxNr+5Xqd+dmnW1dl+iFid+TuK42fgUmMDlPk2JOYvULf7rr+L9bU0uJ1e+3VtNIOK2hy8PLwkKOap7+/TpEpLy/RlCEBAiAAAiAAAiAAAiBgHQGnUmRunflHmjft9+Qrbre3NNTW1VBR2QWh9EQIZcZVnKnpRrFRiaTetWElZ8zgK2jrvp8owDdIajpfnMHhuurQkv7V9TtrvLdKQYkUh/6fmjOlWRTR9lRkhJtnOaSdL5DMEOW0vZ5F5VXNNiWfyWLBS5campWHAAiAAAiAAAiAAAiAgGkCTqPI3Dv3eXGu5D7TMzFTknMhXVJkWCQyrDtNHnGtgfTEYVfT6cwjSv653FNKnCO29K9pqBMmAn11h/wtnb63iV0NS+ur5Robdb6ci8pb51xK5cVadZdG4xUVul0YP79gozLIBAEQAAEQAAEQAAEQsIyAUygy/mKXZN60pgsheVrsrey7DQtp/7FtVFFVSj6evtQrfjD9Yf7fjc761LkjwiXzaKmMPYaNHdx08PvUuaPkJszM4rv1oyF9xlH/RJ3J09nsE0pbtvavNGQkwrtBtgS+G8XRQ25xueLymJ0D/Pib4wBz475Yq/V6ZkrWEn4V4sJNOcQJZwWtEXSqkunWy8t152L8/aHImCaFEhAAARAAARAAARBonoBTKDKD+4yRzMLk6Tz779vp+Bmt69pscZ7FlCJzWigscrhx+gOKWdnGPcuFIuNG987uJ57udPvMx2QxOpt1XInb2r/S0G+ReuF6Vw4+Xv6SS95GcfeKJaG+QfsFn5WsUj33y5a005Yyp3OLFEXG28ONth019BZm6XjqGprcZMvyQWK3R9/9s1wmP1NV51diuwZTtLgMM6eoTC5us2d5uc5NdpcuUcL9t4dw/a1dzzYbDDoCARAAARAAARAAAScn4BRey7qo3CbzIfwTZ/dbhf1Upk6RCfZv8obFisMm4dJ4854flDtk/H10B8zVioyt/esPtlT1hZZ3FMJDdZ7S9GX10/pKS1TXJucE+nKOlD6ZrTsIP31YH5rQv0eLh1dUoT2LEhve/M7GyZwCpT/egfvn3ddQe+xksctlOXh6elPPnklyEk8QAAEQAAEQAAEQAAErCTiFInNKdXaFv/hfM+k2q6bJ513q6nXmRVx537FfqKSsgPgemkPikk11qK+vo4xc3YWKtvavbpvjJeW6L9acvuHKB8jLU3cbfN/4YRQWEslFBqG6popqanXnPG648n7Jk5ta0Fx9tVxbxT/dsF+YAzbx5/V7e8G1dPPkIeQulAr9MCAughIiTbtevigu2qxWmZ3de+UoMX/txiJfahkZonMIkXz2PB04o7sTaFTv7vTfx24k7ks/sKVez8hQCvXXrYe+TEvTxcV5dOGC7l6jfv2azB1b2h7qgQAIgAAIgAAIgEBnJqD9BuigJNLEhZKsiHi4e0oj/MPNr9Ct1/yROL+kvFCckymjyC4xJkfP5lgZOScpMVb3C/jP275W5Nfu+B8N7TtBSZ/OOkqszMjB1v7lduQnu3k+m31cOpvDeTOFYjZ15HWUlpkiuX+O7NKdPl7+Cn277iO5iua59+hmmjD0ailvSJ/xtOivW6ihsZ6yL5wlvjCzufqaxtogwWdkPli9i/50fZPL6yA/H/rrrVfSo7Mm0FlhdsamYcH+3tQ9LJgiggNo2fZkeu6zNSZHtkVcWsk7OxzG9o2jDX9fIObfSGfziik+IoS6dQmi17/bTJ+sbXKz3CAO+z+16Gda+cKdwqyw6T3E9b5/7g7KKiylzPwSKq+qJn8fbxoQGy5dyPmvH7bShz/vMjmGlhYcP76HwsOb7tWJi+tPYWHRVFCQ09LmUA8EQAAEQAAEQAAEOi0Bp1BkWIl5+4un6Yk7/6WclQkNDKfRA6dZvHB84F9WZC4U59DulI1K3V8PrpbOmQT5N928fiL9kFLGEXv0r2lQJH7Y/F967LbXlWw/YdbGSokcekQ3fVGX0+rn8o2LaPyQGQqLrr9d9MkKjBzM1Zdl2vL5ibi7hb2X3X3FSMWsK9Tfl0ITfQ2GkRBtekeGhT/duI+uGNpbaUfefWEFRg69onV3x3BeRn4x/WnRT/TX26ZT18CmC1N5d4iVJ37ph14ql9H6ZbakT57cRxMnzpbuMuL7jK688g5auvQNahSKGAIIgAAIgAAIgAAIgIDlBAxteyyv26aSG3Z9Ry99sICS03ZJF1ya6px3JrLyzhgUs4cyOaza+rn44qg7XM/3xazdsVQuppN6igwX2Nq/0vhvkTXbv6Z3l/5Zs/Mjy1RVV5C++2e5jJ9HT+2lJ/9vPuUVZamzlXi58OSWkZOqpFsrUiXMxS7W6hwXmOunrr6BXv/2F5r/xpd04HSWxjxMXa+yuobYFMxc2J+WTbf/62uTB/bLxO5KmupcjNzWhkOnaNrzC+nD1TtJ/6yNLMPP/LJKSs/THcznvNJKnTkfp82FunrTTKqqyunw4V+U6l27xtDIkdOVNCIgAAIgAAIgAAIgAAKWEXCJjIw06znW3d22TZt6M1/qLBuioVRIYFfJBCs4oIs4W+ItuWAuryyVdlUKis+TvmcvwxZsy7Fn/3w2JqH7AIro0k26gLOg6Dydzj5mVMHRHzVf8BkbmSjMyXqQl5ePOPNTSOcLMim/KEcyNdOXd6Q0H7bnnZBe3bpILrDzSysor6SS8oQZWr2FuxPcRkJUF2KXyj6e7sR3xLCZ2HnhkcySNoL8vBVTtJq6Biqtukj5YgzpF3RukluDmbu7B91yyzMUEhIhNc+7MWvWfEppaQdbozu0CQIgAAIgAAIgAAIdkoBTKjIdciUwqU5FIDKyB914458U88AmZea/Qpk50Kk4YLIgAAIgAAIgAAIg0FICbv7+/i+Zq8x2/LYE2P7bQg91OyqBiooSsetWT7GxfaUp8nmdxMTBxC6ai4pyO+q0MS8QAAEQAAEQAAEQsBsB27QUuw0DDYFA5yOwf/962rz5G+XMF5sKRkQ4/r1AnW+lMGMQAAEQAAEQAAFHJABFxhFXBWPqNASSk7fR6tWLqaGhXrhhzqZdu1Z3mrljoiAAAiAAAiAAAiBgCwHbTvLb0jPqggAISAT4kH9paQFdvFgpFBrd/UXAAwIgAAIgAAIgAAIgYJoAFBnTbFACAm1G4MKFc23WFzoCARAAARAAARAAgY5AAKZlHWEVMQcQAAEQAAEQAAEQAAEQ6GQEoMh0sgXHdEEABEAABEAABEAABECgIxCAItMRVhFzAAEQAAEQAAEQAAEQAIFORgCKTCdbcEwXBEAABEAABEAABEAABDoCASgyHWEVMQcQAAEQAAEQAAEQAAEQ6GQE4LWsky24s083LCSQ/u+5e6h3jygKCvCjUXOfoPLKi84+LYwfBEAABEAABEAABEDASgJQZKwEBvH2JRDg50OTRw1QBuHmhk1FBQYiIAACIAACIAACINCJCOBbYCdabEwVBEAABEAABEAABEAABDoKASgyHWUlMQ8QAAEQAAEQAAEQAAEQ6EQEYFrWiRabp+rl6UHDBvSk4UmJFN4lmMKCAyhUvNyFidbFmjoqKi2nUxk59N2anZRzociAjo+XJ10xYQgN7htPSb3jqLHxEqWcTKeU1Axa/+tBqhZttEa498YrpWZ7do/QNH/H7KlUdbFWk8eJTTuT6cy5XIN8zpg6eiCNGNSL+id2p4aGBqqorKYTZ7Jo445kShNzRwABEAABEAABEAABEHB8Ai6RkZGXzA3T3d02Xae+vt5c8yizI4GoqHgaMmQKJSYOoa1bv6fDh3/RtP7+S/fTtPGDJWVGU2AkcfOjb9KOgyc0JX3iu9F7L91HvXpEa/LlxMmzOfTQSx/SyXRDZSBjyyeyGI2c8zhdKCxV0hwZ2q8n/fDhc0pe3OR7lThH1PU1BSYSj/ztY1qxYbemNCYyjF59/HbNGRu1QG1dPb2+cDktWraeLl3S/VlERMTS/PlPUVZWmmC6hU6fThbljeqqiIMACIAACIAACIAACLQxAdu0lDYeLLozJODm5kF9+gynwYMnU3h4d0Wgd++hBorM4H7xFikx/CX+SFqG0hZHhg9IoK/eeoK8vTw0+epE7/hoWrnwL3TLY2/S/qOn1UXNxl1dXZqVsUZAf2coKjyUVi96kQL9fUw24+nhTn956Eap/JP/rVPkevUaKsVjYnoRv8rLiyklZTsdOfIrXbxYocghAgIgAAIgAAIgAAIg0HYEoMi0HWu79hQQEEqDBk2gAQPGkY+Pv0HbXl6+BnnqjL3JabRbvDKyL1BmTj6VllWSv/AI1iehG0WFhVBZhc6lsYuLC734h5s1SszKTXto5aZ95CrKZk0bRVdNHi41z4oOy8564BXNroa675bEH32laUena2gQPf/ADUoTL7+7lIrLtMpETU09rdt+UJHhyGtP3KFRYlZt3kdf/riFCorLaNTg3vTM7+eK+XtLdR669Wr6euUWqrxYI6W9vPykp/xPQEAIjRt3LY0ePYNSU/dLuzQXLpyTi/EEARAAARAAARAAARBoAwJQZNoAsj274B0B3n1JSBhELi5aXw1s7nTmzBGxW7CNMjK0ZmH6Y/h8xS8GplcsszclTV9UKCqjaXC/Hkr+B1+todc++lZJr966n/4sdjIW/HaOhWW5zg/rdykytka+X9fUVnxMhEaRWb5uJ5UIJcxcuHryCJoyOkkReevTFfT2f1cq6dSz2XQsLZO+e+8ZwdRFnBnyp3lXjaclyzdJMhs3fiUpK4MGTaS+fUeSh4eXlM+7Yf37j5Fe58+flWTS0g6Kc0MNStuIgAAIgAAIgAAIgAAItA4BKDKtw9WurfIXZ/4CPXjwJOrSxfB8SmVlqWTmdOTITqqoKLZr39zYlFE6JaCguFwoASsM+vjXJz/Q3CvHSUoAF04eOcCuioxBh1ZkjBnaR5E+duocvfvZKiUtR9gUbvPuI3TZmIFSVmJclFwkPQsKsmnTpqW0ffsPYi1GSbth6rXg80n8mjhxtmR2lpLyK1VVlWnaQAIEQAAEQAAEQAAEQMB+BKDI2I9lq7V0zTX3UFxcf4P2z51Llb40nz59WOwCtN7h857dI5W+V2zcbdQz2cWaWvpBlN0993JJNiFWqwgoDbRDpG/PbkqvwQF+tOCmJg9oSuZvkV4q5aVbRBf9YildW1tNyclbpVd0dIJQaCZKzhXc3Jr+lPz8gmjMmGto6NDL6MMPnzTaBjJBAARAAARAAARAAARsJwBFxnaGrd6Ci4ubQR/ffvsWZWdbd6DeoBELM3rG6hQZPk9jKmSK8zZyUNeR89rryd7W5BAdEUrP3j9PTpp8xphQZNQVcnJOE7/4vNLs2Q9RSIjONbSrq9bsT10PcRAAARAAARAAARAAAdsJQJGxnWG7tDB79h/o1KlDYmdgm/RlujUH4e/bdCaE+6i6WG2yK18fnVxtren7ZNzdDBUzk43aoSAowLzjA2NdmPPOJsuz4jJw4HjpjExzzhXkOniCAAiAAAiAAAiAAAjYhwAUGftwbNVW1q//XHxhnkBJSePJ1zdA6otNmfr0GSG9+PxGcvJ2OnFiD9XVNXnasueAsvOKKCayydSKL9E0FdQulNnUzFToIi7gNHbZpil5c/l8OL+5wH3JpmLL1+6k7y1wQlBtYvzsYKFnz4GSSVlsLJ+90fZfX18nPJntpUOHtjQ3LJSDAAiAAAiAAAiAAAjYQACKjA3w2qpqRUUJ7dz5E+3Zs4Z69RomXXrJlzTKISysG1122U00YcIsSZnhMxyFhblysc3P05m5iiIzIinRZHsjknopZVxHHfhuGlnpiAgLppSTGepii+N19VqPYHzmpbhU635Zv7HTmXmKIsM7LVv3HtUXaTbNZ18GDBgr7cD4+4cYyJeVFUq7Y0eP7qTqavNe1AwqIwMEQAAEQAAEQAAEQMBqAlBkrEbWfhUaGuolRYV3XiIje0humPmyRvmguaent9gpmCS9MjNT6fvv37XLYE+mZ9PkUQOkttiNcd+eMXTiTJam7f6J3TUujrmOOhSVVFCXkKbdJL5zZsOOw+pii+NFJeUa2djornQ2K0+Tp59IPZtFk0Y2OUvgvieO6E/b9h3TFzOZ5jtjhg+fRq6uhiZx7HCBd1/Onk2x6t4cvvtn0qS5QjEdItU7fHir5BHN5CBQAAIgAAIgAAIgAAIgoCGAE8kaHM6TyM1Np7Vrl9DixS9IuzXsglkdvL2tPxeirq+OL1m+mWrr6qUs3lX55NWHSe2emBUbzpMDy3IddUhOTVeS1142kq4cP0RJWxOpqq6hi9U6s7X7bp6huaiT2xrWvydFdtXtmnzyv/XibE+TyR2P/z8v3ke3zppC7m6Gb/+kXnGauXF7rCCqlRg23+Ndr88//zstX/6uuLsn2SolhttkU0F2qc130bi7e0qKUmBgGBchgAAIgAAIgAAIgAAIWEAAOzIWQHJkEb6rhE3O9u1bJy7JHCLMziYTuwVOSztgt2GfO59Pi5ZtoAdumSG12T0qjNYsfklyw3yhoJjixCWVaqWAZbmOOnz8zTqa+tsdLV6eHrTwlYfErk42nT2XS97eXpSo8oymrmcs/svuFOKdFQ7jh/WlX754heobGsXOzAWKjwknHt8rHyyjhUvXSjK5+cX03her6MkFc6R0cKAfvfqn2+jxu2bRGdF/cVkFBQf4U2x0mKQALV21jZ5+Y4kky//wJZd8CWlJyQVx6eU2OnZsJ7EbZltCYqKhIhcfP0C6VNOWdlEXBEAABEAABEAABDoLASgyHWSl+R4ZVl74xd607H0Z4ztLVgoloSvNmNSkQHi4uxG/AvyiNARXb9lPLKsffj1wnH7avJdmTh0pFfHOSL+EGOmlL9tcmhWl6ZOGketvB/2jwkOlKqzAyEHtcpnzPlq6jgJ/u0NGrsembrK5m1yPn4lx2ktH2cXy0qVvUF7eOVF6SS3a4nhlZRl17aqt7uPjp81ACgRAAARAAARAAARAwCQBQ9sak6IocBYCxcV5VFNz0WC4BcUtv2meTbru+8sH9MK/v6LcghKDtnnX4/m3vqD7X/iAWNZYeOilj6SdkpIy04fhC4vLaePOZGPVlby9KWk0/4//pKzcQiVPHSktqyL9Mzp19fX0qtilmffQa7Qv5ZTGPE1dt6Kymg6fOKvOkszG8vIyRZ59lBhu/ODBjXTxotZJQWHheU2/SIAACIAACIAACIAACJgm4BIZGWn225m7u22bNvXiCyRCxyPAnscG9Y6jRuGNjD2QXSjUntFpbsZx0eHUq0eU5Ly4pLyKioTnsaLS8mY9kKnb5Z0VPqvTQ5i2+Xh7UqFQ1DJzCoRr50LJ1Ewtqx/nuuwooHePaHFOxU2Mv4TyxBxy84uaravfVkvTw4dfIXma4/rsyOHTT18k/bNOLW0b9UAABEAABEAABECgoxOAItPRVxjzcygC3t5+1K1bgrj/Z6TwWDZUGduePauF04ZVShoREAABEAABEAABEAAB8wRs224x3zZKQQAE9AgMHTqFRo26SpObkXGM9u5dp8lDAgRAAARAAARAAARAwDwBKDLm+aAUBOxKID9fd79OY2MD7d+/QXKfzReGIoAACIAACIAACIAACFhOAIqM5awgCQI2E8jJOSPdQVNQkEOnTyfb3buczQNEAyAAAiAAAiAAAiDgJARwRsZJFgrDBAEQAAEQAAEQAAEQAAEQ0BGA+2UdC8RAAARAAARAAARAAARAAASchAAUGSdZKAwTBEAABEAABEAABEAABEBARwCKjI4FYiAAAiAAAiAAAiAAAiAAAk5CAIf9nWShjA0zIiKWhg69jEJCIigwMJQ8PDwlsdzcDPr227eNVUEeCIAACIAACIAACIAACHQIAlBknHQZExIG08yZ94rRuxjMICIiziAPGSAAAiAAAiAAAiAAAiDQkQhAkXHC1XRxcaUJE2aJkeuUmJqaKuKdGL6PpKGh3glnhSGDAAiAAAiAAAiAAAiAgOUEoMhYzsphJP39gyk4OFwZz7p1n1Nq6l5qbGxU8hABARAAARAAARAAARAAgY5MAIqME65uQECIMuqKihI6fny3kkYEBEAABEAABEAABEAABDoDAXgtc8JV9vDwUkZdWVmmxBEBARAAARAAARAAARAAgc5CAIqMk6/0pUswJ3PyJcTwQQAEQAAEQAAEQAAEWkAAikwLoKEKCIAACIAACIAACIAACIBA+xKAItO+/NE7CIAACIAACIAACIAACIBACwhAkWkBNFQBARAAARAAARAAARAAARBoXwJQZNqXf4t69/b2VerV1tYocURAAARAAARAAARAAARAoLMQgCLjhCvdo0d/ZdRVVfBapsBABARAAARAAARAAARAoNMQwD0yTrLUnp7e4hLMrpSQMJj69h2pjDoj45gSRwQEQAAEQAAEQAAEQAAEOgsBKDJOstLXXXc/deuWqBntqVOHKC3toCYPCRAAARAAARAAARAAARDoDARgWuYkq+zq6mYwUlZkGhrqDfKRAQIgAAIgAAIgAAIgAAIdnYCbv7//S+Ym6epqm67T2IgLG83xtbSsoqKEysoKydPTh/z8AqVqCQmD6OzZI1RZiXMylnKEHAiAAAiAAAiAAAiAQMcgAEXGSdaxtLSAsrLS6NixXRQfnyQpMy4uLmJHpo4yMo47ySwwTBAAARAAARAAARAAARCwDwHbtlvsMwa0YgUBNiU7cuRXpUZQUFcljggIgAAIgAAIgAAIgAAIdBYCUGSccKXLyoqUUXt7+ylxREAABEAABEAABEAABECgsxCAIuOEK33p0iVl1GxehgACIAACIAACIAACIAACnY0AFJnOtuKYLwiAAAiAAAiAAAiAAAh0AAJQZDrAImIKIAACIAACIAACIAACINDZCECR6WwrjvmCAAiAAAiAAAiAAAiAQAcgAEXGCRexsbFBGTUO+ysoEAEBEAABEAABEAABEOhEBKDIOOFi8+WYcggM7EL8QgABEAABEAABEAABEACBzkTAvTNNtqPMtby8iOrqasjDw4tcXV3pllueofT0o5STc5oaGxvp0qVGOnp0Z0eZLuYBAiAAAiAAAiAAAiAAAgYEoMgYIHH8jPr6OjpwYCONHn21NFgvLx/q02eE9OIMLoci4/jriBGCAAiAAAiAAAiAAAi0nAAUmZaza9eae/asFbsytUKZuUramWnXwaBzEAABEAABEAABEAABEGhjAi6RkZG62xWNdO7ubpuuU19fb6RVZNmLgKurG4WGRpCvbwC5uDQdeeILMzMzT9irC7QDAiAAAiAAAiAAAiAAAg5HwDYtxeGm0/kGxB7MCgpyOt/EMWMQAAEQAAEQAAEQAIFOTQBeyzr18mPyIAACIAACIAACIAACIOCcBKDIOOe6YdQgAAIgAAIgAAIgAAIg0KkJwLSsUy8/Jt9WBCZPvoOionqLO3/C6PPPn6KLF8vaqmuL+vH3D6ExY+ZRdHRvyevdV189Z1E9CLUNgduvn0q946Opa0ggPfXGf6ms4mLbdGxhLyFB/jRvxjjq3aMb1Ylzkc/963MLa0IMBEAABEAABFpOAIf9W84ONUHAYgIffJChyP7zn3PpzJl9StoRIj17jqAnn/xOGcoDD8QpcUTan0DGlk+UQcx58B+0/+hpJe0IkeEDEmj5+88qQ4mbfK8SRwQEQAAEQAAEWosATMtaiyzaBQEQAAEQAAEQAAEQAAEQaDUCMC1rNbRouCMSYNOwO+98SzIT8/UNpGefHe1wZmIdkXtHmVOYMA37v+fuESZYURQU4Eej5j5B5ZWOZSbWUVhjHiAAAiAAAh2fABSZjr/GmKEdCXh7B1D//pOUFl1dsampwECkWQIBfj40edQARc7NDe8fBQYiIAACIAACIGAlAfwvaiUwiIMACIAACIAACIAACIAACLQ/ASgy7b8GGAEIgAAIgAAIgAAIgAAIgICVBGBaZiUwiLc9gbCw7hQbO4ji4gZR9+4D6NKlS5SXd5p27PgfVVWV0OTJd1JMTH9pYBkZybRhw0KRX2pyoElJUykhYYSoM4AaGxuourqcsrNPUErKRjp/Ps1ovWnTmrwwhYf31JSzW+Xa2ipNHidSUjaJMZ4xyOeMGTMeFHUuUkBAmFTOfWZmptChQ2vMjpuFPT19aNCgK6hHjyGCSZJg0UgZGSmifjIdPrye6uqqpTZN/RMSEkUDBkyl+PghwtVyH3G+p5wuXEgXLpdrTVVx+vzuUV1pUN84GtSnB/VPjJXeP6fP5dKyn7dTSVkl3TnnMuqX0F2aZ0pqOi38Zi2VlhuuqQxi6uiBNGJQL9FWd2poaKCKymo6cSaLNu5IprSMHFlM87z3xiuldM/uEZr8O2ZPpaqLhuw37UymM2KMxsKDt11N1TW11CU4UCrmPlNSM2jttgNmx83CPl6edMWEITS4bzwl9Y4T7/9LlHIyXaq//teDot06Y10qeVHhoTRldBIN7d+T+sR3k9xAp2fnifdzvSKDCAiAAAiAAAi0FQG4X24r0uinxQTee+8Mubq6WVy/uDiXXn/9WiotvaCp06VLDN1yyz80Z1zUAvxlfsWK12njxkXSl111mdp9sjrfVHzx4kdo794VSrEl9QsLs2jhwvslpUapqIqw4nHvve8JRwO9VLm66PnzJ+njjx8SythJXaYqxgrc3Xe/Sz4+Aapc41Fz7pfZycEttzxNfn5BUuWqqnJauvQNKi8vNt5YG+VGRcXTkCFTKDFxCG3d+r1Q7H6Rej6zeSG5WXGW6fyFIrru/lfoQqFWGY6JDKNXH79dc8ZFPbXaunp6feFyWrRsvcH7R+0+WV3HVPyRv31MKzbsVootqX/ufAE98MIHQjHRufpWGhARVjzee+k+6tUjWp2txE+ezaGHXvqQTqYbV8ZYgXvnL7+nwAAfpY6piNr9ckRELM2f/xRlZaWJNdlCp08nSwq4qbrIBwEQAAEQAAFLCcC0zFJSkHMaAiEhkXT99c9oxss7Ec8/v8akEsPC7u6eNHfuX+jyy+/R1G1JormdEWNtsqL1+OPLiC+n1A89ew6nZ5750aQSw/J84eazz64kltUPI0ZcRw8+uNgiJUa/rn66T58RihLDZb6+AdS37yh9sTZJu7l5iDUdQzff/DTdeOPj1Lv3cEnp7d17aIv7512HZ+6bq6nPeasXvWhSiWFhTw93+stDN9I9N1yhqduSRHM7I8ba7B4VRsvefZr4ckr9wPe8/PjRn00qMSzPF26uXPgXYln9cN3lo2jx649YpMTo1+3Vq2ktYmJ60TXX3Et33fUyjRw5XbwXDcepXxdpEAABEAABEDBHAKZl5uigzOEIvP76LAoNjRZfWl+ioKAmMx2+XPK7714VJma306hRs6UxDx7cZMojT+DWW1/XfIk/cGAVbdv2JZWVFVCvXqMlxcfb208Snz79YVH2NdXUVMrV6dNPH5XiQUFdac6c55X8ZctepooK7U5EfX2N+OV5nSKjH+G+Dx5cLfrOp+DgSJoy5U5h6jVMEmPTMTZXW7Xq30o1FxcXMd8XycPDW8nbt28l7d+/klxcXMWXwlk0dOhVUhnLsCxzYhM8Du7uHjR79rOSrJQh/tmx4xs6cmSzZFrXp884mjjxNklOLjf3DA2NNCj29vY1yGvNjICAUGFiN0GYyY0z+oXYy8v4eGbd9wpFR3ShFx+ZT5FhwdIQ9x05Ta++/z+6/fqpNPvKMVLeFeO0itBrT9xBgf66nYhVm/fRlz9uoYLiMho1uDc98/u55O/XtD4P3Xo1fb1yC1VerFEQPPpK04WWXUOD6PkHblDyX353KRWXVShpjtTU1NO67Qc1eeoE97166wHKLyqlyK4hdOfsy2jYgCaTRx9vT7pDzOPfS1YqVfj98+IfbiZvLw8lb+WmPbRy0z5yFWWzpo2iqyY3Kb8sw7KzHnhFef94uLtLih3LyuEbYZa3eWcKNTQ20thhfen2WZOJ5YwFL6+mvyu5LCAghMaNu5ZGj55Bqan7pV2aCxfOycV4ggAIgAAIgIDFBIz/z2NxdQiCQNsS4LMk6emHqF+/STRhws1S56dO7aMzZ/ZTcXG2osiozaeGDbtafOGdrAz0p5/eEorC20o6JyeVzp07Rk888a34su8i7YiMHTuPfvlliSKzZ8/3Ujw8PF6jyOzevZwqK0sUOUsiGzcuFuPdp4iyYvP00z8q53xGjpytUWRYUYmLG6zIr1v3AX3//WtKmpUi3kmSz/GwLNfZs+cHSWb8+Jsl5U+uwHW5DTmw0nX8+DZpx0bOM/c8ezaFkpLGaURyc9M16dZK8K/6gwdPFmecBmkUM+6PzwudOXNEnE/aJs4NnTA6BDa7OnTiLE0a2Z9uvrbJjfa+lDTaf/Q0ZQuTMlmRUZtPXT15hHQuRG7wrU9X0Nv/1SkKqWez6VhaJn333jPS+yc02J/mXTWelizfJFeh79ftkuLxMREaRWb5up3SOR1F0IIIm67xeOXAis2PHz5P/Xs1nfOZfcVojSIza9poGtyvhyxOH3y1hl776FslvXrrfvqz2Ela8Ns5HpblOj+sbxrz/JkTqZtQ/uTAdbkNObDStX3vUVr82iNylua5ceNXkrIyaNBEsXM3UijkXlK5vJvGO2rnz5+VZNLSDkrKtaYBJEAABEAABEDABAGYlpkAg2zHJqA+ByL/+s5nY/iciX7o3XuskpWVdYxWr35XScsRViyOHv1FTlJkpPFzKIqAHSP19XX0669LlRZDQ6OUOEcGDJiipMvLC+mnn3RKmFywcuWbmp2h/v11ilvfvhNkMaHsnZecISgZv0UqK0v1s0ym09OPivM/a4WjgAqxe1AldoY2CAUixaS8rQX8xXfgwAl0223PCYXtj9IZGN6JkgOPfffun2nx4hcFm4VCiTkuipp2o2QZ/af6HIiPd9MX69z8YuJzJvphzNA+StaxU+fo3c9WKWk5worF5t1H5CQlxmnXUClohUhdfT0t/Xmb0nJUuE7p4Mwpo5KUsoLicqGErVDScuRfn/xARSW6naHJI3V33UwY3k8Wo5y8Ilq41HC3kZ0mmAsFBdm0adNS+uST52nz5v+Jv1PtORw+3zRjxu/EGa6/ip2aq4S5YpMjA3NtogwEQAAEQAAEsCOD94BTEmhoMO4lqaHB0OsSH5KXg59fiNi5WCAnNU/1IfouXbppylo7kZXFX76bgtqEjHMiIprMhjjODgSMnb9hL2h79/5AU6fexWJCEdOdc+jaNVbK43/27fvR5l+8G4U50Y4dK2nXrqYv9JxuzXDNNfeIHakmr3Tqfs6dSxW7L9vF4fHDYk7WjaFeeBszFurrDfP79tS9F4ID/GjBTVqzRbmdXirlRb2DIZe35vO4ULDkoDYh47ye3XWmgCs27jbqmeyi8IL2gyi7e+7lUjMJsTpFLK5buNw0/bhpr2ROpmRYGamtrabk5K3SKzo6QZgHTpQUUze3pv+K2IHEmDHXCFPJy+jDD5+0snWIgwAIgAAIdDYCUGQ624p3wvmqFRk+9M/nRZoLoaG6L6/NydqjvKKi0GQzERE6paSgwLhHKq6cn68rU9cJC9MpMgUFmSb7sbbAWuXB2vZleRcXNzmqPL/99i3hMltnXqUUtEKEvX3JIToilJ69f56cNPmMUZlimRSyY0GhajdFv9mesTpFJjMnX79YSWdm67z8qevECvfVcjiXa7q+LGPpMyfnNPGLzzvNnv0QhYQ0nXnj+q5WeJmztD/IgQAIgAAIdDwCUGQ63ppiRnoEfH2D9HKaT+rvijRfwzYJNtMyFdSHpaurTd9vIpvYcTvqe2E8PXUH39mMrSOE2bP/QKdOHRK/7G+Tvgy35pyCAnT8LO1Hf1fE0notlauoNP2+8PdtMp3jtqsuVpvswtdHJ1dbq3uf+Pp4KnXseV8MKy4DB46XvM6p37tKZ4iAAAiAAAiAQDMEoMg0AwjFzk+Az4WwpzMOfDhfPrhvbmZsAmNJYOcA9gmmz3QUF+eI8TftCgQH68x89PtVnxthUzM5FBVlE7t25iBzkMuc4bl+/efSGZmkpPGSq2ceM5sisRtofvH5i+Tk7XTixB5hdldj9ynlCCcAsqnY8rU76fvfDsGb64gvrLQk2Ov9Y/rdQ5QtzrXERDadmwnvEmxyWK6uuvcym5rJISu3kNi1M4duYkfKlsDv0Z49B0omZbGxbPKp65PbZUU7NXWvuBx2iy3doC4IgAAIgEAnIQBFppMsdEebZnLyenEj/VlpWvxF31zIyzutfIHnnZZjx7aaEzdbpn8Gx9c3WHPI3mzlFhbm5vL4mxSZhISRJltRl3EdOXBcVmQSE0fJ2TY/+RA+fxG3VOlraYcVFSW0c+dPQgFdI1xlD5MuveRLFuUQFtaNLrvsJuHFbpakzPAZjMLCXLnY6HP9r4fp7Lk8qSznQrFRGTnzdGaeosjwTstW4aGrpaFO7wwOn7kpLjW9G9fSftT1TmfmKorMiKREdZEmPiJJ5+CC68iB47IiM3JQbznbqieffRkwYKy0A2PsnqSyskJpd+3o0Z1UXV1pVdsQBgEQAAEQ6LwEoMh03rV36pnzLgu/LAnZ2anCXfNESZTvW+E4uxtuSaioKNJU44P0skKlKbBjIifnpHKRJ3sj69atrzgfckLTQ0xMf42Laa4jB/bwJruf5jtj+JWaukMutvrJuyGTJs0VHEdJLpBPnNhLW7Ysk35Nt7oxKyqwgwfedeFXZGQPyQ0zX7YoHxT39PQWv/RPkl6ZmanCRfW7Jls/L3ZZ+GVJSD2bJblrZlm+b2XiiP60bd8xS6oayBSVlGvyYqO70tmsJoVKU2DHxMn0bOUizymjk6hvzxg6cSZL00P/xO4aF9NcRw7s4Y3rcRgv7owZN7Qv7Tioff/JssaefGfM8OHTpItK9cvZYQPvvrBLb/neI30ZY2m+TJPfg716DZHqHT68lbZvb3I3bkweeSAAAiAAAh2TgM6HacecH2YFAsLt68eSm2BGwTsI99zzH/El6DbxxcpQj4+NTRJfkk3/as3uhtVmW1dccb/mokrugy+3DAmJ5KhdwpYt/1XOvPD4H3hgkWaMrNhwnhz4fAzXkcOWLZ9pTK4WLPhA49JZlrP0GR+fJJkG8Y4MX7bJd8okJOjuubG0HVvk+N6atWuXCJfLL0i7Nfruo+15Qecn/1svzpY0mawx//+8eB/dOmsKubsZfnwm9Yoz63q5qrqGLlbrzLbuu3mG5qJKZjKsf0/poktb+KjrLlm+mWrrmrz88fg/efVhzRhZseE8ObAs15HD599vphrVmZn3X35AUWxkGXNPVjBdXXUOG9j8j3fNPv/877R8+bvCdXeyVUoM98XuuPlOGr6Lxt3dU1KUAgObzN/MjQVlIAACIAACHYuA4Te5jjU/zAYExM5NLq1Z8x7NmvWkRMPPL5huvvkVuvbax4nNriori4nzwsLiKDg4QrrT5YsvnjZJju+b4Z0dDry78fLLW4T733ppZ4YvzGQzruXLX6H16xeabMOagoKCc0IZW0RXXvmAVI3b//Of10jKSUlJHoWHx2mUMpblOnJgT2UbNiykq676g5TFc3344SXSeM+fT5O+ZEZFWW4y1KOHoStkNvVKTd0nd9lmz6qqMsnkbN++dUKZGiLMziYTu/VNSztgtzHw/TLvfbGKnlwwR2ozONCPXv3TbfT4XbPozLlcKi6roOAAf4qNDpMUkKWrttHTbywx2f8vu1OknR0W4B2OX754heobGsXOzAWKjwmXzLhe+WCZuK9lrck2rCk4dz6fFi3bQA/cMkOqxmZiaxa/JLlhvlBQTHHikk61UsayXEcOmSL+kRjLI3fMlLJCgvxoyRuPSqZ5vFvjJhS63j2iZXGDJ19yyZeYlpRcEJdebhOmnTttNkdMTBxi0E98/ADpUk2DAmSAAAiAAAh0WAJQZDrs0mJiagIbNnwkDooHiTtk7pXMobjM3z9U3GFheHg5KipRXdUgzorCkCHTlXbk3Rf5HApXULt8NmigBRk///wOde0aLxSopi+j/Es0vyIj/TWtHTy4mlhWP6xe/R+hqMXSyJGzlCJWuvhlbcjPNzyTVFmpNZmytk1b5dkVNCsv/GJvWKzg2DN8JC6BDPztDhlXsavBoUtIgPTS7ycxzvSXepZlRWH6pGEktxMV3vQelM+hsIza5TOnbQ3vLFkplKSuNGPScKkpD3c34leAX5Sm6dVb9hPL6gdW5OKEGdysaaOVovjuEcSv5gK7WF669A3Ky2Pl2pxbguZa0pVXVpaJvwddmmM+Pn7aDKRAAARAAAQ6PAFD24gOP2VM0NkIqE25Wjp29obEuyRvvjlPXKC4T2Mepm6TDxqnpyerswzip07tpbfemk/sDcxY4C/R6jMqLFNZWWJM1Gie2nWyLMAmbQsX3kfffPMClZYanqngnZmvv35eyNyvmNHJdfnJl2guXvwILVr0sOa+GbUMx6urK5p1hsBepfjXdTmUlhaIM0e75WS7P4uL8wQDnde2qou1No+prr6eXhW7JPMeeo32pZzSmIepG6+orKbDJ5qcUKjz1fG9KWk0/4//JPYGZiyUllWR+owKy5SUWX4AXjYjU7fNJm33/eUDeuHfX1FugeF7kXednn/rC7r/hQ+IZfVDdU0dPfK3j+nhlxdShuq+GX25cjH/LXuOarL57EteXqbIs48Sw40fPLiR9F2WFxZadmZOMzgkQAAEQAAEnJqAS2RkpNn/Xdzdbdu0qRdfABBAwNEIsBtY3qGIju4tmVaVluYLBUGYCQkzNDYTsyRwG3yeJjy8B3l6+lB5eaEw6coUCk6OxW1Y0o8xGTaBi40dJM4WNFJmZooYu06xMCavn+fjE0gxMf0oKChCfCEsE57XisT4C6T5c5vNBxfRfx/BzpUyMo5bfcah+fYdW4J3U/igPptUubm50YXCEsorLKXc/CLJTMyS0XMbiXFR1EOYdvl4e1JhcRll5hRQzoVCi9uwpB9jMhFhwTSodxw1CiUj5WSGGH+pMTGTeQF+PtQvobswpQumsooqKhIXchaI8bNCxG22RRg+/ArJUx33xY4gPv30RfGDgXXzaItxog8QAAEQAIHWIwBFpvXYomUQAAEQAAE7EvD29hNe+xLE2bSRwmPZUKXlPXtWC6cPq5Q0IiAAAiAAAp2DgG3bLZ2DEWYJAiAAAiDgAASGDp1Co0Y1OdqQh5ORcYz27l0nJ/EEARAAARDoRASgyHSixcZUQQAEQMCZCeTn686lNTY20P79GyT329bcQePM88fYQQAEQAAEtASgyGh5IAUCIAACIOCgBHJyzkh30BQU5AinHcl2907noNPGsEAABEAABEwQwBkZE2CQDQIgAAIgAAIgAAIgAAIg4LgE4H7ZcdcGIwMBEAABEAABEAABEAABEDBBAIqMCTDIBgEQAAEQAAEQAAEQAAEQcFwCUGQcd20wMhAAARAAARAAARAAARAAARMEcNjfBBhkOxaByZPvoKio3hQYGEaff/6UdImjY43QttH4+4fQmDHzpAs66+vr6KuvnrOtQdRulkBERCwNHXoZhYREiPdVKHl4eEp1cnMz6Ntv3x1oB08AAEAASURBVG62PgRAAARAAARAAATalwAUmfblj94tJDB//t8UyQ0bPqEzZ/Yp6Y4QCQ9PoLlz/6xMBYqMgqJVIgkJg2nmzHtF2y4G7UdExBnkIQMEQAAEQAAEQMDxCECRcbw1wYhAAARakYCLiytNmDBL9KBTYmpqqoh3Yvg+koaG+lbsHU2DAAiAAAiAAAjYiwAUGXuRRDsgAAJOQcDfP5iCg8OVsa5b9zmlpu6lxsZGJQ8REAABEAABEAABxycARcbx1wgjBAEQsCOBgIAQpbWKihI6fny3kkYEBEAABEAABEDAeQjAa5nzrBVGCgIgYAcCHh5eSiuVlWVKHBEQAAEQAAEQAAHnIgBFxrnWC6MFARCwI4FLl2BOZkecaAoEQAAEQAAE2pQATMvaFDc6sweBGTMepNraixQQECY1d/58GmVmptChQ2uoqqq02S6SkqZSQsIIiokZIM5FNFB1dTllZ5+glJSNxG2ZCn37jqd+/SYKd73R5OcXIh0M9/Hxo5KSPDp37hjt2bOciopyTFWX8kNComjAgKkUHz9EuFruI9xIl9OFC+lUX19rtp66sKXj5zZ4NyI+fpiY/3AKCooQDLuQv38XcnV1o7q6aqqoKBQMTtHu3d8ZnQu7vx437iYKD+8hcfDxCaSamkqqrCyhsrJ8yshIpqNHf5Hi6jEjDgIgAAIgAAIgAAL2JgBFxt5E0V6rExg48HJNH717j5HSV1/9CC1ceL+k1GgEfkt06RJDt9zyD+rff5KxYrr22sdpxYrXaePGRZKSoi90xx3/El/eo/SzpfSwYdfQjBkPifpv0ObNnxqVYQXk7rvfJR+fAE05K0eWBFvHv2DB+zRw4DRJmWmuvzNn9hsoMtOnP0jXXPNHUd/bbPWlS/9CW7Z8ZlLG1zdQrMPTQhkMkmSqqspp6dI3qLy82GQdFIAACIAACIAACICAPgGYlukTQdppCfAX/ccfXyZ2GHSHueXJsALy/PNrTCoxLOfu7inucvkLXX75PXI1zbOgIFOT1k94efnSjTe+RL16jdYvohEjrqMHH1xsoMQYCJrIsMf4e/QYYpESwy6IMzOPaEYyfPhMuv76p5tVYrhSdvZxTV39RJ8+IxQlhst8fQOob99R+mJIgwAIgAAIgAAIgIBZAtiRMYsHhY5I4MCBVXTw4GrJfCk4OJKmTLlTMpfisXp6+tDkyXfQqlX/1gz91ltf1ygR3Ma2bV+KNgokxeP6658hb28/qc706Q+Lsq8lkyl1I7t3LxduenfQ6dP7hDnZeak8NDSGxo69gcaPn6+IXnfdE/Svf92gpN3dPWj27GeJ7y+Rw44d39CRI5sl07Y+fcbRxIm3CUXKQy42eNpj/OpGT53aS6dO7ab8/EwqKMgQpmGlgo+/ZO4WHBwlTN60h+AnTbpdqc7mcD/88BqdOPGrMOUrEcx9halZPCUmjpQUxXPnjiqyxiKhoZEG2d7evgZ5rZWh7qu2tqa1ukG7IAACIAACIAACrUwAikwrA0bz9iewceNiOnNmn9IwKyVPP/2jOPPSX8obOXK2RpEZNuxqcS5lsiL/009vifK3lXROTqp0xuWJJ74VyoaLtKMzduw8+uWXJYoMR379dakmzYni4lxJseFdjAkTbpbKu3cfoJEbP/5mCg2NVvK+//41WrfuAyV9+PA64QJ4m7Rjo2SqIvYav6pJ2rr1c9q7d4U6S4qzgmMsRETEK9nbt38l6n+hpAUFYYaWLRSb7cRsmwtnz6ZQUtI4jVhubrom3ZqJHj2a3ifcR1WVVmFrzX7RNgiAAAiAAAiAgH0J6H4itm+7aA0E2oxAfX2dRskIDdWeY+nde6wylqysY7R69btKWo6wYsSH1OUQGdlLjlr05C/3cvDyatrZkdN9+06Qo0LxOU8bNixU0nKEd0RMhbYYv6m+5fzc3NNylMaMmUfyuSQl04pIevpRoUStFbs+FWJXq4r2798gFNMUK1qwXtTT01vsGnUXu2czhRnbSKWBjIxjShwREAABEAABEAAB5yKAHRnnWi+M1gSBrCzduQz9w+jsHUwO7G1s2rQFclLzjIrSKS9dunTTlMkJbpudDfAORVBQpDAHcxdmZhcMzNBkeX527RqrJPft+1EyJ1MyLIjYc/wWdGdUhD3CsQkcB/Z09thj39DJk7uEAvm18Ba3VvIiZ7SikczGxkbasWMl7dq1SirldGuH6667n7p1S9R0c+rUIUpLO6jJQwIEQAAEQAAEQMB5CECRcZ61wkjNEGC3waaCWhHgQ/N8XqW5EBpqqMiwx65p034vztL4N1ddUx4WplNkmnMYoKn4W8Je4zfWtqV5O3cuE7sw42jo0BlKFd6V4Vd1daW0I7Zp0ycGns4UYSORtlBg5G7ZvbR+YEWmoaFePxtpEAABEAABEAABJyEA0zInWSgM0zwBNlMyFXx9g0wVmczX39WZM+d5mjnzT1YrMdwBH4aXA5vBWRvsMX5r+9SXZxOwjz++n5Yte9lAWWEnCezp7W9/20aTJt2mX9Uh0rt3/yzu+VktnBtkKeOZPv0OydxMyUAEBEAABEAABEDAqQhgR8aplguDNU3gkskiPpciH7Znz2N79nxvUlYuqK2tlqPCPXCQ2Im5V0nzBZAbNnwsHdDnCzhZUenRYzDNn/83RUYd4YPw7BqagzwOdXlzcVvH31z7lpazQ4NNmxZLThDYvG706LnCzO4yyW01t+Hq6k433/yK5DmO+ThSyMg4Li7rPC7Wfi3ddNMTwtwvRvIi16/fKHEh6TlHGirGAgIgAAIgAAIgYCEBKDIWgoKY8xLIyzutKBC803Ls2FarJsPmU2rXye+8c4fGaxo3lp+fblKR4YPysiKTmGj9fSm2jt+qyVog3NjYQOxpjV9+fsHiItCHhQvs3ynuo9lVsyWKjIeHl+QlTq00WtC9TSJsSnbkyK80depNUjtBQV1tag+VQQAEQAAEQAAE2o8ATMvajz16biMC2dmpSk9Dh15F/fpNVNKWRPiuGjnwrsTZs/vlpEXP8+dPKnJ8YF4+NK9kNhOxdfzNNG9TcWVlCX333d9pzRqdJ7iuXePMtunm5i4pEgsWvEoLFvxDmKXdoihBZivaqbCsrEhpSb47SMlABARAAARAAARAwGkIQJFxmqXCQFtKYNOmjyU3v1yf74m5557/SGc52BRKP8TGJlFkZKImW33BI9efOPFWTXlziS1bPqO6uhpFbMGCD8S9NlOUdHMRW8ffXPuWlM+c+RhdeeX9FBKiU+rU9WprL6qTZuPx8Uk0aNBE4h0ZvgSU75RJSBhsto49C1kZlQOvJwIIgAAIgAAIgIBzEjD8Juec88CoQcAkAb60cs2a92jWrCclGTaH4rMc1177OLHZV2VlsWQiFRYWR8HBEZIHri++eFppLyMjmerra5WzIFz3mmseFWcukqm8vEBcqliumI4plVQR9lTGd8dcddUflP4ffniJOJtxls6fTxNnS9woKqq3qoY2auv4ta21LMWmY8zt+uufli4P5TmVlORKY4+LG0Tx8UOVhvlMj7mgvpBSlouIiKXUVN0lp3I+niAAAiAAAiAAAiBgigAUGVNkkN+hCGzY8JFyaF8+7+LvH0qJiaEG84yK0u7IsBLz5ZfP0B13vKmclQkM7CrdJ2NQ2UTG6tX/IXbDPHLkLEUiPDxeeM2KV9LmIraM31y7lpaxEsOB2fGuFb+MBT4/89VXzxkrUvLy83OUuByprCyXo3iCAAiAAAiAAAiAgEUEYFpmESYItTcBPothaWDFQz+w2+Ply1+hN9+cR6dP7zN5gSPfiZKenqxfXVze+B19+OHvxQWKu0ltmqQv2NhYT3l5Z/SzhWlZNS1e/AgtWvSwcAyQYVAuZ1RXVxh1RmDr+Ln9srJ8uRurn+vXLzQ77kuXGsUh+k30zju3SU9zHaSm7pUuEZVlSksLhAe43XISTxAAARAAARAAARCwiIBLZGSkzmDcSBW+udyWUF+PC+ds4Ye6rUOAdxZ4hyQ6urdkHlVamk+lpbnEZlysjJgLvBvDdfmGe/aCdvFiqTBPK6WKiiJR/7y4ZLH5u2J8fAIpJqYfBQVFiPplUl02U+P+WSloLtgy/ubaNlfOZ2QCAyPEuLtKbqfZLI8VJJ43u6K2PLiIXZ0+gr2r5BbZnHJoeZuWSXbv3ofmzGky8yspyaclS162rCKkQAAEQAAEQAAEHIoAFBmHWg4MBgRAoLUJhIRECDPBv0jdNDY2SopMWVlha3eL9kEABEAABEAABOxMwLbtFjsPBs2BAAiAQGsTKC8vkrzIsdc03hG65ZZnhDnhUcrJOS124xqlHbGjR3e29jDQPgiAAAiAAAiAgI0EoMjYCBDVQQAEnIsAnzc6cGAjjR59tTRwLy8fcbfPCOnFGVwORca51hSjBQEQAAEQ6JwEoMh0znXHrEGgUxPYs2et2JWpFcrMVdJ9Np0aBiYPAiAAAiAAAk5KAGdknHThMGwQAAHbCfAdPqGhEcI1d4DiWpsdD2RmnrC9cbQAAiAAAiAAAiDQqgSwI9OqeNE4CICAIxPge28KCgzvtXHkMWNsIAACIAACIAACTQRwjwzeCSAAAiAAAiAAAiAAAiAAAk5HAIqM0y0ZBgwCIAACIAACIAACIAACIADTMrwHQAAEQAAEQAAEHJLAmMtHUf9h/YyOrbamjr545yujZcjsPASGThhCD/x5gTThgvOF9NxdL3SeyWOmBEUGbwIQcCICn25aKI22uKCE/nTjU1L8n1/9g8Iiu0jxuy77vRPNBkMFgbYl4Ox/P84+/pasds9+PWniVeONVr1YedEqRcYvwJfufvJ3NGTsIMrLukBff/g/Stl9xGjbHTGzo85/5MTh5OHpIS1ZfX29RUvn4uJCdz52G429YjRVllfRiiUracuqbRbVdVahjvr5AUXGWd+RGHenJsCeteTg6ma9hWjigARK7N+T4vvFU/f4GKqurqH88/mUdTqbtq3ZTiWFpXLzeIJAhyNg699PewNx9vFbw69KfMm0V5g4YzwNE7/ec4iKi6S5d8/uVIpMR5y/u7s7DRk3SHmL7N96QImbiySNHECTZ06URDy9POmm++fRjg27qE7s8nX00NE+P6DIdPR3LObXIQmoP2zV8eYm6+XtRXc8eiuNu3KMgWh8nzgaNWUEXXfnNfTLym305btfG8i0d0ZQSCDd+8xdFN0jmvjXxcdueIr4V1lnCe0xfvlXOGsZdeTdPfXfjDpuLaP2klePWR1vr/G0Zr8/fvETHdl3VOkiQfz4Mv/BG5W0NZHYXrEa8djEGOIvwpb+iq+p3A4JWz8/nH3+xpD3G96XfPx8lKJ92w8qcXORuETte4HbiOoeSZmnzpmr1iHK1J8Z6rizTg6KjLOuHMbdqQlUX6xW5q+OK5lGIpExEfSHvz1I0XFRRkp1Wfwfe1T3CF2GA8W8/byJf0mTg1sLdqPkuu3xdPbxtwez1uhT/TejjrdGX63RpnrM6nhr9NXebTY2NNKpo6eVYai/tCqZFkaSd6fQ2GmjFenUQyedRonhQdv6+eHs81cWThUZMWGYksrNyqPss9lK2lzksHgvzL33ekWErRCyzlhWV6nkpBH1Z4Y67qTTwRkZZ104jLtzE6iuUikyqrg5KtJOhkqJOZ+ZS9vX7KDTx8/QpcZLFNc7li67bgpFCiVm58bd5ppCmRMR+PI/Sw1GO+ayUZQgTAs58Hvpu8U/GMh05IyW/P04Eg9nH397sdwnzI4ion+kXgMTqby0gn76anV7DaVd+u1o83d1dSU+6C+H/Vst241h+XOnz9Fnb38pnZdqEMryuu82UGNjo9xUh352tM8P7Mh06LcrJtfRCPAHkLevN5UU6c6wlBaXSdNUfzjpz3vk5OHKF1cuO5mSRv9+/j9UVaEzy+K8Dcs3Sf/JZ5zM1G8CaSclwGuqH7r3jFHeD3t+2Setu75MR0y39O/HUVg4+/jbm2N9XT2t+Pyn9h5Gu/Xf0ebfe3AvCgjyV3ju327Z+Ri5wuYftxC/OkvoqJ8fUGQ6yzsY8+wQBIouFIvzIVFUmFukzIfdTXLgMmPBzd2N5t07RykqyC2kN598m+pqDQ818iHAk8lpiqx+hA9FDh0/mOL7xFMPsYPDOzlnT2ZQhngd2HHI5EHJrlFhFCtskmMTulNoeAj5BfqRn78v8bZ2rvAelJOeY/ag5fQbrpCGwuZx6nDZrKlUIxwV6IfDu5Ip91yefraUHjR6IPVKShTjiSH+Ja66sprOnckirpOTcd5oHUcav9EBOnhmeHRXiXl0XDQFBgeQf7A/+fr7EHvfO3cqizJOZdLRfcdIfQjV1JRasn5yWy35+5HrOsLTlvGzC+MBw/tLf3/+4u+PWbOZVnF+iXQuYKc46Fx4Qfe5op6vretna331WKyN9x3ah/TPQ8ht1NXV0aYffpGTFj3ZO9bwiUMpOjaaIrqHU5eILuJzsFHyfFWYV0Snjp2iY/uPU2lR0w9McqO28Lfl88+e82+vz3+Zof5zuMqsjP82zp5I1xdR0vy5ERUbqaSNRc6dzqJjB44bK5Ly+IzSxKsmUES3cOnvyEf8H1YjflysKK+U1jv9ZDql7DlisPZyg+3Nz5bPD3kOjviEIuOIq4IxgYAJAgV5hZIiU5BboEjIcS4zFtiEKLxbV6WIt9CNKTGKgIlIt/hu9OALvzc4Y8P/UXLIST9P7/31I0kp0W/ijS9f1c9S0oNGN0WvueUq+u//fS59CVAKf4vMf+AG/SwpPfuu64zml4odK31Fhl1Us7tN9RkbufJYGk1z7p5F337yPa37doPBF2pHGL881rZ+skni+CvHSt3WXKyhh2Y9Sg31DQbDuOH3c+nq+dOlfN7pe+i6Pyoyr3/xihLXj4yeOlLKSj18kj5+bTHxl0FjwZb1k9tryd+PXFd++voG0i23PE1+fkFSVlVVOS1d+gaVlxv/IUGuZ4+nLeO/56nfSV++jI1j5JThNPO2q6T3v7EdPFvXz9b6xsZsad6w8UPpijmXGRVnRyGWKjLsrpdd9c65+3rqEh5qtD3OvGzWZPr24+9p1derNTK28Lfl889e82/Pz38NyN8SvB6sUMphfzOH/PlsFN9JZC5sWrHFpCJzzc1X0aw7ZpKHl4e5Juhzca+RsfeUI/Cz5fPD7KTbudB6v63tPGB0DwKdmcDX739D/3j0n7Rv634FA8c5j8uMBfUuBm8tb/15uzExs3nsrvnF958zUGLUlXin6KUPnieWbUngXY+HX7pfYyrQkna4jr6ixrtAf/34BaNKjNyHu4c78ReGK+dNk7Oserbm+K0aiJ2F1V8QvHy8hNtu4+vbZ3Bvpeej+48pcUsjXP/vi16iGGH2ph/stX4t+fvRH0ufPiMUJYbLfH0DqG9f81+Q9NtoadqW8bN7dXOBPRre+vB8Uq+jOXn9MnPrpy9rLG1rfWNt2jOPFZEFz9xtVomR+2MzXf3Q2vzV/el//qnLWhJ3xM//nsJ7XUhYsDKd/dsOKHFjEbYeaGlgb57zFsxuVonh9vkKA/3gKPxs+fzQn5MjpbEj40irgbGAQDMEeJdBf6eBD62WmzEHi1CZY2UJjy78q7o1gX/5uuWh+ZoP8d2b99JecbaCy0aLg+MjJg2TmuRfq1j2bw+9arCrIff589K10q9erFSFdg0hNpuQD56zqcusO68zuORu4T8WSdWDQoIkf/9yW1+99w1VlFXISelZX1tPB7Yf0uT97k+3a1x07v1lP/3y01bi80V9BvaiG34/Rzp7xJV4Z4jLTHFqj/FrJtPGiSN7jkoOAfhsFoeBo5IoNfmkZhSs4MT3jlPy2LzCVGB+XM4Ha6Njo2iqcDDBZn4cuI/bHplPrz36pqa6vdavJX8/moGIRGiooXmKt7evvlirpG0Z/471u+j4wVRKO3pKmJMVS+9vNouaMGMcTbp6gjLeOXfNkn4YUTL0Ii1ZP3UTttZXt2VJfKeY99nUs4po9/judNX8K5W0JRH+JX/89KZdSVme38P8OZifUyDMW2spMDSAEvqKu7n6xkkOVGQ5+WkLf1s+/2ydvyN8/ssM1c/hE5v+z+G88pIKSks5pS42iK/8chWl7DP8XJp67WTJ7NWggipj6nWTlRTvNn/78XI6dvA48R1Hnt6exP/H9k7qJX4o608ZadrzpY7Ez5bPDwWAA0agyDjgomBIIGBPAmzPKwc+H2Nt4P/E+T9nOfz89Vpa9vF3clLsDh2QdjJkO26W5To7Nxj3fHbw10OKO1V2qsr1/774JWW3p//QvkrbcmTn+qa2ImLCNYoM/yddUVYpixl9sqMD/vIthx/+u5JWfLZSTkruOjOFB5vn3nlKUsz48Ch/udv4/WZFRh1p6/Gr+26POP+6e2hnsmKWweYc336yXDOUPoN6k/piVnOKjJofn8f6dd1OWvDs3cTrxIHbYlMnVjY52Hv9pEZt+Ofs2RRKShqnaSE3N12TdsSEsZ3YIqHQpB05JZ11ky8HjNO7a0V/Ltaun73r67fXXPpsarpQZNIVsYpRlVYpMn4BfpJJqtwA3znzzp/fl5RxOU9+puw2/KIsl9nC35bPP1vn7wif/zJD9VP+8Yzz+D3ZnMcx9tLJL/2QNHxAs4pMpLhfRg5bftpGm1eqHAQIvztsDsvnon5Y8qMspjwdlZ8ywA4QgWlZB1hETAEEzBHoGtVVKWZf+daGgSN1SkBZSTn98Jnhh/XyxSskd6Zy20kjdHe9yHmmnnzoeO2y9Uoxn4WwZ+gzuOkMD7fJhzlXfrHKoHm+p0L95Zt3CiwNrT1+S8fRmnLs2UwO7J5b/y6ifirlk+9isOZ9xorS5//+UrMDNmjUQLk7YerUuuundGRhJD39KO3du5YuXqygmpoq2r9/A505k2JhbccU27JqmzIw3l2zJjS3fs21ZWv95tq3tbyHuChY3o3ktpYvWqH5rLC1fa5vC3979G+uDUf8/I9N7E5syiuHfVZ6K5PrWfo8n3leER0/Yyz1HaL7TFIKTEQckZ+JoTptNnZknHbpMHAQsIxAbY3OlMyzmYOKxlpU/xq1a+Meo57JamtqicvkQ7VRVigC3CdfZCaH5g5TynKWPmN6Riui/OuqvHOkZP4WYY9acmCTG2tCa45fPY4XP/yzOEOiG6e6LOtMDr18/9/VWXaLH9mrNS8bOWm4xo2tWpFJNvOrtKkBsWkIv3/kXQG1dyH1fFtr/UyNy1g+//K7Y8dK2rWrSSFu7pdgY220Vx7/bQ0ZO4giu0VScFiQdKt9cWGJRolsydjMrZ8l7dla35I+WirDrsrlwB4S1/xvnZy0+tla/K0eiBUVHPHzf8TEpt1bngY7bDi+/4QVM7JelM8Jyp9x7HXx6f97nE4cSpXOm+7fdpD4/z9TwRH5mRqrs+ZDkXHWlcO4QcBCAhey85UD+NZ+QecuomJ1Lo/NHVi9kHNBGZG6jpJpJsI2+60VYoS3NTnwofEb75srJ00+w6xUZFpz/OpBugtX2u7uxj+2uay1Av9qfnDHYeVW9HHCi5l8Hwe7JJXPuHD/KXtNm9eYG9/5czqzD/WOT1usn7lxmSpzJgWG5zDr9pk046YrNbsLpubWknxT62dpW7bWt7Qfa+XYZbwcsoVnRktchMvy6mdr81f3Zc+4+rPcUT7/1WZlh3elEJv7tWbYvnqHtAszQnUuh3dl+MVnPbes2k7rhTdQY+7LHZFfa7Jqj7ZhWtYe1NEnCLQhgfzzBUpv1n5B54pqUxP+0DYVvL2bDoNzeZ04cG9N4C/KrRV8ha9/a4O1u0KtOX5Lx27sP1FL61oit3dL05kVlmV33nwXD4ekUQOks0Uc5/cHn7loSXBz0yli9XU6985tsX4tGa8z1bnxvnl0vXBVrjaRsvf4Ta2fpf3YWt/SfqyVa7yku+29XJjWtiS0Bf+WjMuSOo72+R8VF0VRcbozK815K7Nkjs3J8E7c+y99ROxcRv9zlv+mpt8wjdhFPzsO0A+Oxk9/fB0hbfynvY4wM8wBBEBAInDhvGqnRPwHwLbFauWmOUx8iVaXiFBJLKRLiElxF1cXpczcVrsiZIcIe4RpLvCBZvnehx3rdtHOjcadEKjbcaTxq8f1r6ffJvUXPnUZn19qzcAXhvJ/4jJLdojASgtfNCcH/nXU2B0zcrm5p/qX7oYGnSLjyOtnbj6OUuYX4Eszbmy6UJbHxN741vxvPbGL7EpxkR9/0Yrv3YNuf/QWm4Zsav0sbbQl9S35+zfXvyX1L4oLc+Wgdpwi5zX3bE3+lozf3Pgsqe9on/8jVJdg1tXUUUtMWc0xMVXG78/1322UnMAMFuaZ464cQ0PGDCJ228+BnZ3c8dit5CW8mK1Rnfl0NH6m5ufM+VBknHn1MHYQsICA2lOLq6sr8cVefPGkpYEPOsqKTGJSgslqvVRl6sORJiu0oED/S7Kv+JLG7qfNhVzhqUb+8s07LXzeo71CS8avHqs1h+jV9ewRb2xopHXiP+ibH7pJam7s5aNpxZKVNFilyLAHspaGnv3jlaoXsnXKtyOtnzJAEfHw8JJ2omprdV901eWOEmfzF/UX1jefelvxGiiPkXnbqsiYWj+5j+aeltZX/w2xEsafadaY+VlbP+tMljJ03onkzxL9X+UVASMRe/JXj527suTzT39I6jYs4edIn/88l+GTdJdgpojP8rb60UnmyO819pLGLz6zN/PWq2nanKmKye/UWVM0ioyj8ZPn0ZGeMC3rSKuJuYCAEQJnT6Rrvriw15XmXKyqm8lOz1GSA4UZkbELC9mLjNrFsbqOUtkOET4UrA7h0TrX0up8dZzvzpED21YPGNFfTrb5syXjb/NB/n975wFfRbH98QMBUkhCSCghQEIIkEDoTaWjoPIs6EOx96eA2LH7FOwNn/6fBcWCovhAUFFQpAqIUmOkEyAVCCUJ6YFASP5zJu7e3dtyW25u+c3nE3Z2dup3LvfumTlzjpUG1wlnquXCdwIHFgrve/5eVfWQhazd2/ZYKW35EZ9d6j+kr5pB6yvJk+aPOxgQ0IRGj76O7r77FfH3Kl100Y3iJca6t291YA0QidA4DeRV5fQ9GS7vhbX5s6Uxe8prdx5ZQGvZ2uAU0Za2jMsrizSWymq/y1hoYlPhWsHQUjkl3ZX8XfH94cz4G/r7n7UJtL9dKfVsrUyZQ0tX3tFc8OFCWvrlz2qWNjEGK6GcqP38NDQ/tZNORoKDQ+mSS26j++57m6ZO/Q8NG3aVkzU6VxyCjHP8UBoEvILAQuHASwl8WJx9ppx34SAlSb2y6eOrbr9SZ15y9eJfqeps7ZkX/gF/8KWpQkfZYJ6YBZsHRJoSOC+XqY/AusraFbhx4vCy8XkWdq7JjjaVsGLRKuGwrtZyG/d/yrN3S11mrd8TJW9c1zjd2JR0V10d6b+r2nZFPayWtOaHtWpVWv9C7PDPlpXxkZcNFyuZhnNL/BL76OsP6/zQrPnR4KfBk+aPBx4f35N69x4ud2RYgGGfMgkJfVQmnhbJOXBI7RJ//kddMUK9dyRi7/wZt+Fs+dKiEl2VF42/UHdv/P9f91DcGJcfd90l1CywmZrNuHzG3kzdQlBin2702MyHqZPGAaxSmPmyxb2wiFAliVzJ3xXfH/aO35O+/wcMM+zG8M7SX8IAiTvCVcJJM39OtL8r2nYrrVgt8yR+2j47E+/VaxglJQ0SizpNxSJOMxowYAyFhxvMYTtTtyNloVrmCDWUAQEvI8COB/n8Qp/za88z8A/35H/fTRPvuYay9mfTqYpTxCtJXZIT5Gpj+04x0rwkD5PP06xYtJr+ccMlctQs7Lz48XPiQP9ZKswvItYb1woFnNeeMzj2omSdaMVqDZvEfG3uS8RqT8eFCWf2sMz9W/DhItVMKp+xWPrVMprwr9pVI1YHYF3mq4UH86OHjkqHmqEirbUYf0uxes2O6+bMnGtvt2zOb2//ba7YTRlXfbdanrlo2ky/C7Fh+R829YDP1pw3ehAdEjtlAUKvnM3baj8/f274S3jHzlbr8rT569TJdEevbdtYSksz+NpRO+8BEXaIyIsLii7/rQ/dRONvvUI6ieTD6xVlFRQl/s/YGuydP+N6nS1ffLKE2FdRh8611gjHXX8xXTD2PKnuFRHZQqrBav//G7dvXJ69trPTQv4eZJ9bxt8fLJx//Npn9IL4zgsMCpTV8ffOc7OeJnYwnJebR+WCYUjzYIoVzkTZoe63nyympV/XrtK7mr+z3x/2jt+Tvv8HiB11JexN3Sc+u6eU23q9XnT1aAoNb07X3vNPyjl4iE6IOS/MK5LfW/FJnSihu0Etls/EaIMn8dP2y5l4ly6G3XOlnvj4ZNq+3bAApaS74wpBxh2U0QYIeACBWS/OplsevJGGCtO5SuDVcP4zDr3P66lL+vHLpdSmQ2tSzE8GCFO//Kf198EFtq3/kzhvfQY+cMne5Xn1k4OySsYvIErQmuzlNPb9wPrkfOhZKcerpmERXZUi6lVr+ldNdGHEkf67sHmnq2LVlA2//EH8AqiEDKG+eDT7qHJb55V30TqLFwDjkHPwMM1773/GyR41f3l5BlVLpaPl5fVraEFpx5ErCzGfv/Ul3fXE7epnv0VkuPQn40h9XMbe+TNux9nyvMp92yM3q9VGRLUg/lOC8f9/JV25rhTC+B2P3qrcUrAQQhQ/IZxoXJ5N2H/08qd028M3E7PjwN8jrOqkdcwoH4h/2scbfD25mr8rvj/sHb8nfP/z/PJumRL4t8ZdgYUYDjznrNqmVW/T9oGF3i/e+UqbJOOewM+kU04klJeXUGu9Bh0FB9cycqJah4tCtcxhdCgIAt5FgNWCPnltjlxdtLZjwl7u574zTzc4Vml4f/qH9NW7/zPrtZ13ZrjM+zM+VNW4tBWwdRlbA//wWwv7dx6g1x95iwqOnzSbjc9waPWSORP7Gfjmo0X0ygNvSEtbWvU0bSVsPphfyo1DQ/ffuD/O3pcUGl68tXFb612+aKUu6+9CsLE1aK1TKWWY+2/LfqeX7n+VjFc0OY+z86e044prWtpWKioyGCMoLs6nvXvrtoTnirYdrYONMPz32Q8obft+q35QeGdTez7JXHuOzJ+2HmfLc11rl66XpnC1B9eVNvizpDVwoqRrr7zr+uU7X5v1P2KpPB/ufuKWZ2jpvGVCPU1/Vk9bN+94GDN0JX9Hvv+0/eO4veP3hO///prFK/4MuUqtzFg12ZgV3y9bsELuwph7xmncH9Z4mPnYO7RDXI2DJ/Az7pMz96mpq+nUKf3/gYIC2xeynGnbXNlG0dHRNeYeKGmWnK8pz+u61rejorrax3MQAAHzBPicQkdxSD+6fVs6feo0sQpPvlAj42tdgVWw4oSOOH+BZwuVjIawpsWrY3xWp22HNhQoVOV4p4DVPNiiEL+QWQtyNTWmFbXv1F6qN3H/i4SHcx57XWWt1WvPM2f6b0879ZF30KgBdO9zk2TVLCBPu/4J1QiAufbmrJmtJr/64JuSNavyNRc+fg4LYxK8m2PuBVctZBRp+PlrRLGxidJiVnb2Xrv6bjQUt9/yjgKrUIUJD+XNxM4Yq+eUl5QL63+l8vNvTjhwdv6cLW8JEqt6xXWLlRajAkMCqUio++SkH7LZBDir2PLqOh/4Z99XJ/NO0iGxK2jLewurqEZ3FKqsbaPozNmzVFFSQUUni4SKq0HINddvR/ibq8cV3x+Ojr8hvv8ff+sRddeMVaVffehNc1jsTpvx0b/VHRatSqC5inj3v4XYGWohVBjZzHKZ+H/Dgmuh+NwoRlDMlTNOawh+xn1w9n7AgLHikP94Wc25c1U0Z850Ki8vdrZah8pDtcwhbCgEAt5PgL9496WmyT97R8M7MPzXkIFffHPFSzD/2Ru4LKuL8F9DBWf631B95nbjEzsJFZtb1C6wTxJ7fsRZ/YJ1zPnP0dDw81dDOTn7HO1+g5bjFy/+czQ4O3/Oltf2m1e6+aXW0cA7s+wL6cAu+2tgi1VsAc5eK3DO8ld66orvD0fH7+7vfz53xEYWlGCvE0w2m53Yuxv9uSFV913Vb2hfVYjhuo/kWP8t4YUuWxb6lH5aurqbn6V+2JseFNSc2rdPoMTEQdS1q8HwQkqK+A1oICGGxwBBxt6ZRH4QAAEQ8CMCdz12OzVp1kQ6Ukzs242ihUEFJfBO1i8LVyi3uIIACICAywn0HdJH7n4qFacIgcSeMObqi2jsPy8kNnTBgmfRyWJxRi9ed76JjddkCgt1CJYJ9Os3igYPHqfLkJ29h7ZubdjfAAgyuinBDQiAAAiAgJYAq5Gx4zzjwCpl7zz9LvGZAgQQAAEQqC8CipVKrj9rf47F85GW2ldcDbDlPu3Ojjb/93N+bBAVaW0fPD2el3dE7WJ19TlKSVlFGzcubXDVWggy6rQgAgIgAAIgYEzAnBCz7680mj9roTCTnGOc3ew9q7CwPj6CdxJwdv6cLe+d1NBrVxHo1stgXTLFAWtlm1ZvocGjBuos2yl9Y/XEn+b9QssX6g2YKM9xNRDIzc2gHTvWU35+LqWn76CKCsdVVA21Oh/DYX/nGaIGEAABEPBZAmzWun18e2JfO6ySceLICbv9BLGZ7ihxKJpDxt4Mt/l/8NlJcfPAnJ0/Z8u7ebhozsMIsNNlxbx2lvCLxIfs7Q1sHCG2S6x0NyDrEmauThzNEw5Lc4ShC70FLnvrRv6GJQBBpmH5o3UQAAEQAAEQAAEQAAEQAAEHCMCPjAPQUAQEQAAEQAAEQAAEQAAEQKBhCUCQaVj+aB0EQAAEQAAEQAAEQAAEQMABAjjs7wA0FAEBELCPwMiRt1K7dt0oPLwVffnl48IrsGccErRvFMgNAs4TaNy4MT344IOUkZFBP/zwg/MVogavI3DRRRfRP//5T2ntadasWbR79267x5CYmEgTJ06kjh2FU+PoaAoKCpJ17N27V36+7K7QgwvcctVo6hYfQ61bhtPjb3xOJcKJqz+FyZPfEE5fm8ohsx+mU6dK6fjxHNq8+WcqKDhmFwpf/P6BIGPXRwCZQQAEHCFw/fUvqsVWrfpEvMRtU++9KRIS0oJuvXUm9ep1IZ04kUWLFr0oXkLWetMQnOqrv4/fKXh/F37mmWeIX2T5hSQ3N1f4YNjqimpRhxcRaNWqFSUnJ8sen3/++XYLMsOHD6cXXniB+AC7cUhKSjJO8vr7lx6+SR3DxwtWUMrudPXeHyIBAU2J/zgEBBA1bRooFwUTEvrSsmWf0cGDf9mMwRe/f6BaZvP0IyMIgIC/ExgyZCL16XOxcM7WRKyCdqHx4x/3KyT+Pn5XTPbAgQNlNbwyOmPGDLmi7op6UYd/EODPzaRJk3RCTGlpqRSIN2/eDMHYBz8G2dl7KStrD+Xk7KPKSsNuFH8Whg+/WvweCenGxuCL3z/YkbFx8pENBDyFQGxsL3rqqaW67syePYlSU3/RpdXHDauG3Xbb21JNLCQkXPTjPL9SE+vYsacOa4cOPeSWf1XVWV26p944O3/ePn5PmBdWK3v77bepZcuW1Lx5c3r11Vdp8uTJVFZm3gTsAw88INWQrPW9vLycVq5cSR988AGdOXPGWlY8a2ACPXv2VHdjuCsDBgyQc8+7c2lpaWKn94TVHrZu3Zo6dOig5uHPz6pVq+jcuXNqWn1FWgnVrv88fRd169SOWghz7IMnPEql5YYX6/pq19/rXbp0toqAhZakpEE0duzNMi08PIpatGhFhYXH1TzWIvZ+/1iry1OeYUfGU2YC/QABGwmcf/4Ek5yDBl1tklYfCUFBYdSjxwjxEhZNgYEhYiXIv75Cdu36VYf1wIFN5C1CDHfc2fnz9vHrJq+BbrKysuQZhvz8fNkDfil96qmnnOoNC0RXXXUVTZ8+3e/+TzoFzo2FY2NjpQD73nvv0YgRI9SWe/ToQVOmTKEXX3yRvvnmG7r99tvVZ+Yibdq0UZP5M7R8+XK3CDHcaFjzYBo5OJnatYmkkOBAoebkX9//KvgGjFRXn6M9ezZReXmx2ouwsJZqvK5IfXz/1NVmfT/Hjkx9E0b9IOBCAqzSNGjQeJMa+cxGcHC4X+2OmEBwQ0Jq6s+0dGkcJSQMEquoBfTLLx+4oVXPacLfx++qmcjJyaGHHnpIvtjyCnt2drZNVe/cuZM+//xzeUg8MjKS+vfvL8/bBAYGyvJDhw6lCy+8UK7Q21QhMrmFQLdu3ej9998XZxtqzzlYa7SoqMjaY/E9H6w+LygoUOOI+BeBsrJisaPbQg6az8zYExz9/rGnDXfmhSDjTtpoCwScJJCcPJJCQyNlLadPl4sVsQDx4xgk1JuaiZeaf9Dvv893sgUUt0agquoM/fTT/1nL4tPP/H38rpzcw4cP0/3330/8krt+/Xqbqma1o5SUFDUvqxT99NNP9NZbb6lWq3iFn9MRPIcAq/NohZg///yT1q5dS8XFxUItqAWxMNuvXz+x292Dtm/fbnPH3aFOZnNnkNGtBGpqqjXt1WjitkUd+f6xrWb354Ig437maBEEHCZw3nn/VMtu3vyt3IUZPPgqmcbX+hJkxoz5l2yjTZvOavscYbPKZ85U6NL4ZufONcI8ZIZJOidceum9oswpCgtrJZ8fPXpAHGLcSX/99QtVVBi2y80VbtYsmHr3HkudOvWl2NieYmW6Wqxm7xTld4gXgJV09uxpc8XUNF65io/vL3ZUBogXiLaiD1FCMIyShyW5LO+yHD16UJi1/JZOnsyV5bp1u0C0VWthSK3o78jZs2do3bq5xsn1cp+UNJS6dx8u1PpixEpcS7kqHxzcnIqKjtOhQ3toy5bv1D4bd8CZ+XPl+B2dv1atOopD8cnibECyGH87OX4+o8XC/IkTmWLO9os5+77O+Tfm0tD3x44dI/5zJrDp3t9++03ozI+V1bBgZC2wlSw+p9GlSxdpOY3P17Ap6I0bNxKrnVgKvPvDB4Xbtm0rLCaFy89fSEgIsXrTwYMH5Rmd48et6+k3a9ZMng/h9nlHic8JRUREyAWZ06dPyxd73p1asWKF+P4wX5ej/edxuaJ9S3wspfNuWffu3dXHy5Yto9dff12910bYhDJz8LTwr4kXyy517thW17Vbrx5NFadMz2St2biDMg6Zfq6DA5vR2GF9qU9SPPXsFic+fzW0c38W7UzLppW/p9LpSsfOGjYW1tuuu3w4NQ8OUvv32cKVVF1j+oI/+rxeNLB3V+rRpaNUySsrP037Mg7T6j920IHs2u98tZK/Ix3btaZkkb9H144UI9TqIsKbU4vQ5lR26jRlHj5O+7NyafGKjQ7337g9d9274vvHXX211g4EGWt08AwEPIgAv4T37Hmh2qNt25aIVdhQUgSZLl0Gixe8CKE7a6qaMGuWQXXlyScHiRcG/YHS+Ph+9Pjji9W6p0yJU+McmTDhWd29cnPFFdOUqO5aXJxnUZDp1esiXd5u3c6X9//4xwM0e/ZkKdToMvx9ExOTSP/61/vC0EBX3WN+0ebAL7MffzxVXnUZ/r65++4PhNnkMdJ0pbnn2rSMjBRVKOjb91IaPfp27WM1zvb8bRFkJkz4N40Zc7dazlokLe0PeuedG0yy3HrrW/Il3uSBSOjf/zIhIE4VfkneoF9/nWOSxZn5c8X4uUPOzN+LL24wGZMhYbSMXnLJVJo370nat89aXiIWgG688QlVLaOiopTmz3+DSksLDVV6WezsWcMLYFVVldnes6+RadOmCdXUQWaf33nnneL/z8e0cOFCKaQYZ3ryySdJez5D+3zUqFF08803y/Lffvut9pEaZwttQ4YMkcKEmmghwsKZsSDjbP+dbd9CV+tMbteune7ckjVz2w0pxLRrF099+44SAm5fsUP4vVgYWquO7dmpE9W4NjLtztpFNG0ax/NOFpsIMonx7en9GZOoa6cYXfYh/RPl/f7MXJo640MpFOgy1HHDQsybT95B11w6RM259NetJkJMh+hW9Mq0W+QZHzWjJjLtrqvo9dnf0adCAKoxEoA2zH9Vk9M42ksmTL1xHD01cy5tSNmry9C2bSxdf/3jdPjwAcF0HaWn7xD1a3dTdNlx4wCBxg6UQREQAIEGIMCr8XzAnkNh4THxhbiV9u79TRVc2JqJVtCxp4uNGtluvtGWeuvaGTFXR1RUB/GitVDskJgeXOzceQA9+eSPJkKMth52uPnUU0uI85oLvItjiy4x/4jl5OwyV0WDpuXn51htnz8bEyfOoK5dz7Oaz5aHjsyftXpdMX/W6udnvGtzzz0fmv38aMsmJg5UhRhODwkJE1aABmuzeFWcd0jOO88w5/v37zfpPwsgn376qUUhhguw6tO9995L1157rUl5Tjh69KjZdCWRdxNYVa5Pnz5Kku7KuxK8I1JX4P9/xmNwRf+dab+uPlt7XlJSons8ZswYnWCje+jmG/ZN0qPH+XTDDU+I745pQs1xgNyd7tatn1M9Md5ZGZCcQD9+9G8TIUbbCDu8XDL7WeK8tgYWYmY+pRdilq1LoQdf/FhXBRsnWPbpdItCDGdu1rQJscB217W1O5u6Cmy4iY1pTbNeuJdatgjV5e7atZZlhw5d6bLL/kV33PG8+H94idCm0OfTFcKNXQSwI2MXLmQGgYYjwCvjSvjrr2Vy1ejcubNCjWs1KZbM2MfJ5s3fKdlcdp0z5yFZV4sWrYUp2GfUehcufF6oY+lXsquqKsXK0wo1j3Hkzz9/Eqail1FJSZ5QK4mmUaNuk+penI9Vj1hdTXsOhZ2+TZw4XbxoGdQGeDcqJWWJ8KXQWBo/6NdvnGyG83De118fb7Kqpu3HwYNbhTrMZsrLyxGqMdnSAgz/sPCuQUREO53RBFYzy8r6Sy3eoUN3ocYzSb23JbJ162Kh/mXqvZvHe9NN+tW+7duXm62S55V3a9LTtwl1sqPCn0C5UM/pQBdccC0NHXq9WubKKx8VZyb0L6POzJ+z43f1/K1Y8aHcdWG1MraexztdrC7IITg4jC6//BGxw2J+B5HzREZG80UXgoJqFwh0iR54w1YCWeBggYDPVbCa1TXXXENRUVGyt2x62dyOyKOPPiqEt+bqiNauXUs//vijWBAplILHPffcIwS6WgY33XQTLVmyRPwfOKXm5wire6Wmporvm53i/02efM5C1Lhx48QL2mVq3rvuuovYZLS1wHXwWRA2Ocx/7AeF2+/cubMQSFtJc8Ta8q7ov7Y+e9vXlrU3fvLkSWlSWdnN4l0pPvj/2Wef0bZt26x+T5lrKywsTE02niP1QR2RsLBIoaI7TKj5DTH7Qq0smCnVPPTyJzLaOrIFPTPF8N3y/LvzqbBEbza8srKKVmxIVYpKfzfT77+BggKbqmlL1myhJWu2EQsi48cMpnEjaxefOA/nHT/l5Tq5NBEW02Y+eSddfXHtjj5Xvvy3VLr/hdlUdU6/4/Hao7dSeGiw2v5Pv26jeT+uo/zCEhrcpxs9ec8ECm1e+/sy9aZ/0P+WrKPyU5Vqfm3kw//9Qhu27aHyitMU3TqS7r7uYuqf3Flm4TYevmM8PffOPLVIYKDh/x0nsoWxIUOuEIsPl4rv8xS5S3PixCE1v62RM2dOq1mN50t94CcRCDJ+MtEYpncT4N0WPhuiBBZelMCe5RVBhk0j88F/PpTtyrBly/eyujZt4nWCDL9cm1Nls9b26tWfCZ38bWoWFmyeeOJHcf6hh0xjU9JaQYattMXFGVZ5V6yYRd9//5panoUiVp1SzoFwXi6zZYtBVU7N/Hdk/fovheO4H4yThXCz1SQtO3uHOIezQ00vLz9ptyDDOzzmdnnuuutdtV6O/PbbPKEa9rkuTbkxd/6pdmeu9mVo2LBadTQ+S2IcnJk/Z8fv6vnjs1DK5yczk6T/pGefXaHu1iUmDjEevu4+M3On2LnU5zl2LEuXx1NvRo8eLdQca1XpjPvI6mXPP/+8iUrWyJEjhfqpYceJrZ7xnxIyBUQ+4/Luu+/Kl04+fH7ppZeK/2O1/+eVfGxUwDiwQLNr1y750nn55ZfLx127djXOZnK/ePFiWr3a8B2mZGABwzi4qv/aeu1pX1vO0Tjzfvzxx9XivDv05ptvSiFu6dKl0mADH/y3JWh331hIsifwrkCfPiPFGcHechFIW5bVnTIydglB9TfxfbdP+4i+X7FJ3sd3aKsTZL4T50KKSsp1eY1vxo85j/p076Qmz/r6F3rto0Xq/bL1KfRvsRNy99/ncDgvl1m8srZNNaMmEhoSJNTUJtOo83qqqb+Ieu57fjadrTqnpnHkHyMH6vK9PecHeufzJWqetMwjtOdADn37/pPy8x8ZEUrXjBtKX3y3Rs2jjawQwlLK7vS/kzKI213x+fPqbtPQfkna7OJz/rUUVnr3Hi79vyhaAcpuGO+IHT2aKfMcOJAqzg3p+6+rTHOjNb8cF9ddmmTWPParKFTL/Gq6MVhvJaCcf+H+80o0+y9Rwt6969UvP1794UPh3hTYD4v2JT0ysp2u+8nJo9T70tICYf74HfVeiSxZMlO3M9Sjx0jlkcdeL7zwTnF4+kq1fwcPbqEFC6ar9/ZENmz4Ws1uvAKoPmigSH3PH7+ArV5du2LMQ2QVRWshK2u3EGKXix2FMrGrVSF29laJFzjTF2hrdXjiM3aoyYKFcejbt6+alJ6eTnPnzlXvlQgLI+wVXglxcXFK1KYr7+AoQWseWElz5uqO/jvTP1vK/vzzz/Thhx+aOCuNiYkR6pD30KJFi6RanyV2vJvGRhx4t0sx6sDtbtmypc7m+cW5V69h4gzT02LB50F5BoZ3spXAL8SbN/8sdoimi+/W2UKI4TMeNcpjp6+jBhuEjfzCUiFEmC4gvfXJYjpZZNjZGTnIdDFG6Uh0m5a08N0ndMLJnG9X05TnPjQRYrjM+f0SlaK05+AheneuqUDOgsmvmw3qxF3i9L9BagVmImxQ4ONvVqpPOrRrpcaVSH7+EVqzZj598skzYqHqGyoo0BsV4PNJl156O9155wtip2acPMenlLV0zcw09JdVAnmXp02bjsIQh2n7lurwlXTsyPjKTGIcPk2AD6krgQUXrRNG3hFh1SflbAifkzF2XKiU9dTr4cP841kbtCpknNK2be22Pcd5F8Xc+Q22gsbqW6NH38HZKDradj1rWcDN//B5nauvflptlXdW2NABqwpaC8yGjSW0bRsvrK5Fi923JkLN7IRUM7NWriGfuWP+tBbyjD8/xmOvrq6mP/5YQps21b7Q8L03BcU8L1sOY3UlRWWMLYDxy/K8efPkeRhlTKyupQRWS7ruuuuUW921U6dO6j0frDcX2ALXBRdcICzIdZTqbKzmxlbLHFVxMteGcZor+29ctzvv58+fL63LMX8WRrRCC3OcOHGi3G1jtTzj80ivvPKKydkjNtnNKoJ1hcsuu0vsaNfudmvzHjqUJnZfNghV1e3Sep32mSvjnTsaPks/rN5s1rLXqcoztFg8u3PCRbLphFjLgsQHYidGCXye6uVZC+njBSuUJJNrUuf2alpEWHOpCqYmaCJdNcJL+7ZRmid1RzM1Ftq0KnTGJVkdbMeO9fIvJiZBaFkMl4JlQEDtqzj7hTn//MuEKe4Lxf/lx4yL6+4PHtwuVGy3qOf7+NwN//HuzjffvKXL6+s3EGR8fYYxPp8g0LPnKHUcWrUyJZHVyxRBxht2I5R+K1c2e2wptG1rEEr4PIulkJdneKYtYyl/Q6Wz41K2vtakSVPZBVYD/Oije8Q5AcsMOONllz0o1OfukZbqGqrvjrSrnYv6mr+iomN2d83bBBgeIKtjsQd4JfCZGVYbu++++4RqZgd5iPyWW26RK/WKmlZ8fLySXQo+kybVfb6Lz74Yh9tuu02+bCuCk/Hz+rp3Vf/rq3/21HvkyBH6z3/+Q7Pr3GvWAAAki0lEQVRmzRJnA0eJxYyr5U6LUgefe3rppZfk7kxlZaWSLM1Tqzd/R1iQ0VqrM36u3Jsz5LJo0dt05IiiHqXkrJ9r51iDIJOTa7pjqLSac+SEEiVtGTXRTGTRL39YFWK4CFtLU0JM20h6avI1yq3Fawc7BZljeUUW67L0IDc3XagWposzM5HiczBVnPcz/J/j/9d1Bd6JPnz4oCrI1JXfl59DkPHl2cXYfIIAq8pER3dRx3LrrTOFOUfDyww/4EPjSmjdOk4cBO4k1EyylCTdVVn90SU28A2r+VgKWlWp06crLGVTLbpxBlefEbLYqAMPbrzxZZ3603ffvSzUObZbrYkNLIwde4/VPJ760B3zZ26XzlN5uLJfLIxt2rRJnnHhw+O8S8NhxIgR8lA+x7WHw/nelsA7L9owZcoUizs52nz1EXdF/+ujX87UyTtY7E+G//gM0BNPPKEaW0hI4JX63mKHeavaxBdffCF2YnvJ3TDlDNLTTz8tzt3lmFh4UwtZiVx99f3iM/OX2Bn4Tb5MW8nq9KPQEMNnqUL4XbEUQoIN+c6csb4zrdQxQZhc3pdxhD75xvKOTIuwECW7zVdruyrmKjktjGzYG1hw6dVrqLQa58hh/ZiYzmJh6wa12by8w8Tn/4qK8tU0f4lAkPGXmcY4vZaAOZPKWsHF3MCSk0cKtYMsc4+kA0jF2aPZDHYkskUq1wTLOtmFhbnC0lTtqlpERBuLzWn1vlnVzB3B3vHzwXftuRi27mbpcL/S/5CQFqohA05ja2WrVn0sTW+zA9FmzUKoU6c+JsKtUt7a1d7+G9dlS3lPnj/j8XjrPat37dixg4YNGyaHwLszSjhx4oR0Ysn3bHls5cqVyiOLV+1uAAsSWpPM/BK+YMECaXGLz+Ww2eWkpCR66KGHLNbnzANn++9M2+4ou27dOuEIuEIe/lfaS05O1gkyLNTw35dffkkffPCBMLHeVe6+XXzxxXUKMitXfinPyPTsOVQIS7UWz3gxi82Q8x+f39ixY4NUUzp71rALpPTF2tWW//9Hjp+kDtG1qlptoiIsVte4seG3hFXNLIXf/9xHF4hzL2zxjP/YZHJURJjwAfOt2SK5J06Soir23fKN9L0VIwJKBaettK/kceTKv1GdO/eSKmWxsYmiCsOYuT5WGU9L2yqcQ6+rs3qeO6U8z+GCBTOFanJVneV8MQMEGV+cVYzJpwhoD0uzF3dLalhsyjg0NFKOncusXfuFyoF1iZUfnYiIthadTqoFLESMz3CEhEToDtlbKOZU8rFj6aogk5AwyGJd2mdcpr6C9seCdxvYopwtlmbYVPANN7ysdquw8Kg4eP2oem8pwg5DtULaf/97q2q1SynDu2/Gu3TKM+3VFfNn7/g9bf4UHnwImv9PaM2YKs+88crnpZSgVU3hVXtFVYx3WrQr/Up+a1c+bK+t77HHHpOWyrRlWGWqvgQZZ/uv7aenxlNSUuQ5FYUzn3cyF1iVjK2cPfzww/Jx+/YGtSlz+TmtrKyINm5cKtQNfxECUH/p9JKdNCqhVav2dOGF1wkheLwUZvgMR0GBeVVNY4tgfOaksNjybjq3kZ5zTBVkBvY0aBYo7SvXgT0N1u64jKXw1iffU5gwc/z+9MmqyeR7bxpHgc2a0gvvzTcplp5zXBVkeKdl/dbdJnnqO4HPviQnXyB3YMz5SSspKZC7Y7t3b5TGfGzpT1iY4RzP7t2b/FaIYVaGbz5byCEPCICAWwmwiUbFcz03PHfuNLkSb64Tw4bdqPok6dr1fKFX3VQ9PF5eXqgKOexzZceOVeaqqDOtrExv7rN161jhIyGzznLOZMjN3S+230fIKvj8T/v2SUK/e5+uSjbdzLtQSuAy9RVKSw0M+EU4MjJGrGoeqrO5iRNfkH5OlIxfffW4WIktVm4tXllAVQILpJmZKcqt3VdXzJ+94/e0+ePV6BEjJlD37oOlgLhv31Zat26hzoCG3WAbuAD7XunZ02Ad6tgxw4sgm1ceNKh2AYBVzgYOHCh3U2ztMtetBP787d7t3hdBZ/uv9L0hrxMmTJA+eDIyMsx2g885KUIMZzh8+LDZfJx4/Phx9ZmiSqgmWInwAgQfDue/6OhO0gwzO2tUVI2bNQsSOwUj5F9OTpowv/2uSW0ni0p1aewEMvOwoT+6h3/f7M86ojqiZHPJSZ07CHUw/fh6dOmos0LGZayFtcLC2LUPvE5zXn+QolvV7vLcde0Y4fvlNL316WJd0bTMwzRiUK2xA/ZXM3xgD/pN+IFxV2BrYgMGsBPUAJMm2eAC776wShj/37InaH1fGftys6ceR/KyzzX+Du3ata/s9/bt62nDBj13R+p1tEzdJ4ocrRnlQAAEnCYQH99PPfvBX3RZWZbPUrCjRCWwzi2XVYLWD8qAAVeIH7GLlUd2XdlcrVZta+zYyTpHlVwZOyfk3QdXhXXrPlfPvLDgMGXKp7ozQyzYcJoS+HwMl6mvUFqq10FmBlpVP3PjZ0Gsb99L1C5t2rRI2P1fr95bi2gdafL4hw+/yVp2q89cMX/2jt/T5i8+vqdU7eAdGTa4wD5lEhIMfoqsAvSwh/x54PMU77zzjlioCFV79/vvv6vxhQsXilXe2rMJnP+5556jK6+80uwBcjbxa2x6+cCBA2pdXJ7LujM423939tVcW2x17f7775cOMGfPnk3Tpk0TC043CXPIN0uVvRkzZtDLLxt2avncEzvKtBS0Rip4PhwJ7Ddp+fIvRJ+ek7s1Wp8kXJ/2JVlbf8XpSjp12qD2NemGS3WOLjlv/x6dhaPIlmqxL777lc6crVV54v5+8sp9pDVvzIINpymB83KZugKbUr7ugTfoeH6RmvWBWy+nG680LGjxg0+EaeSKv51bcvvvTZ9EN40fRexQ0zj07Bqn65vxc0fuWUDUCjGsvse7Xl9++RJ99927Ynd9h91CDPdDO/d88N+dgc15JyUNkoul7LeOBbWGNPvcxJ2DR1sgAAL2EUhKGqYWOHbsgDBzWqLeG0dqn5eqq/5cln2TcFi1arbYsRgl4/wCN2nSbHHIc59Y3cuUL+FaYwIyk5V/2EIa7+pwYOeDzz+/TqhFVMmdGXaYycYJ+AD7ypWzrdRi+yPe7Viz5lO6+OIpshDX/+9//yIs9lSKg43HhSWmOPFDYfgq47y27JDY3gN9zpKSPLEjtFfsDHWXD0aMuFk64MzJ2Sm8kseaHf+1187QVdKjxyiaPn2NLk25YVPaX3zxiHIrnXGycMY/GBxYPe2yyx6S6SxUVFSU6owHqAUtRJydP3vH72nz16lT7eqsFg+r2qSlWX551OZtyPiAAQOITfFWVVVJwYXPwige45V+7d27l/7880/lVvqW+eqrr4SlvH/JNF7Ff+SRR4TPijvp0KFDVFJSIg0CsE8T3n1hx5fsrFEJaWlp0joWmwjmwGpNbMGM0wsLC4XqUplYWHDdwoXSrnJl3zjO9F+pp6GuQ4cOVZtmQZH/rAU2n827UO4IFRUlUuVs27YVQpjvKxZbRhKbBT5wwPD5Me7H2s07iXc2OAztn0Rrv3qZqs5Vi52ZExTfoQ11FH5U2CTy7PnLZZ5DR/Po04WraMqNl8p7fv7LZzOkGeYT+YUUJ5xsaoUKzstlbAlZwtLZzdP+Qwv+73FiR5YcXnr4JsoQqmmb/kqT98fyCun9r36ix+7+p7yPCG9OrzxyM027YzxlCLPJhSVlFBEWSrExraQANv+n3+iJNwxq2bKQE/+wk0t2Qspm8rdv/00sYG30enXWLl36mhCJj0+WTj1NHrghwfDr74bG0AQIgIB9BLp3N/wIZmRY/nHhWnnHhvMoKlZcdunS/8gG9+37XTj+WypWTi6X97yawy/iysu4TLTxHxYUeHdBObeh7L5oHRHGxPBBRteFn3/+r7DEFi8EqNofQ1ab47/o6NofL6Wl1NRlxHnrO/z66xdiRfU1tZng4DAp1CkJxuOPimqvPJJXXr2ytILFebWCDAsx8+Y9SWytTmEeHt5a6FtfpKvT1htXzJ+94/ek+cvLyzVBVV6uV5kxyeAhCREREcLx3RCLvdm/fz+xNSsWdLSBD+crh/YVFSaui/+Mg/GODJ/LmDlzprSspZSNjIyUFrSMy9bXvTP9r68+2Vrvnj175IH8ugQYVtnjHRvFT5Ct9bsiH+/ysPDCf2xNiwUcS4EFjUtG9JcH7TlPuzaRMisLKErQmjzmtP9+sUQIOa3p0hG1AlDTJgHEf2HN2ylF5HXZuhSZV5dYx83+rFyaOkP4T3p7muxTgDBd/M4zd9Eld86g4tJaK5cfzV9B4eI8z93XXaz2O6plGPGfcegSF2Oc5NQ9m1ieP1/sHB1n9WP71MecargeC5eXl4jfY30DwcHN9QluvDPdW3Nj42gKBEDAOoGoqFg1Q2Zmqhq3FElPN5js1Jbl/J98MlXulLADTUuBz1Ds2mV+p0Apc/DgVnr77evp5Enzesz8I2h8RsVam0q9ypVf3I0Dq0TNnj1JWGZ5joqLjxs/ljsz//vfM9KpJOc1F3gnwVXh99//J36cnjV7ruL06XJytbGBTZu+FQ7S7hEvGputqiHwzpjWOaS58Toyf8b12Dt+Z+fPHvPK5j4/2v6zVSBeHVVCcXG+OHe2Wbn1uCvvmvCuhFal6Ny5c7KfLLDwmQk2wcyH8NlLPO+SGAcWRth3Cas47dq1S1U1M87H1rP27dtnnCzUkJbTs88+K1+yrenyc7+4v+bCyZMnzSXblOZs/7kRZ9q3qZMWMvFBfp4XdnjJan3vvfeezuDCxo0bpR+gqVOn2i3EaNWLLDRvd3Jh4XFhGdGy1cetOw/Q9Q++SYePFZitu7ikgozPuLBK2qRnZ9Fz//c1HdOogikV8K7JM29/RZOfm0Wc1zgUlZQbJ+nu/0jdR+/OXaqmsXA18R8GbYaz4v/JK2KX6Jqpr9G2nQd16nFqIREpKz9N2/eZ7oadrjyrzWY1rqjRKZn4/8vx4zni1jeEGB5XaupqoR2iN/JQUHBUGbLbr43ElrBVulpLKI70znhlyJE6UAYEQMC1BNjXTLt2XUWljcTqW5FQDzn595/pS5Cllnl3gFXS2rTpJNXT2KFjfn6OeGHIlapmlsq5Ip0tr8XG9hYv9dXSAltxseHF1BX121oHn43p2DFZWlWrqqoUYz8q1M72mBVwbK2zrny8G8MqbGy1hr3YnzpVTKzjznPIltCMLZNZqs8V8+fo+Bt+/hqJz48w4SpWb7Oz91oVDi3xc3c6/xbzrgp7hGcTyByKiooc6juPu127dtSpUyd5VoZf8tmEMwtMipBkaXy8G8NleTeHraCxallpaalYYCgW6qUnTHaDLNXjTLoz/XemXVeVve6668S5vlpVWTap/OmnhjN+dbXRv39/6VST87G1OD5v0xCBTR/zWZdOQjUsOKgZFRSWUE5uPuWeKJCqZtb61FYc0O/dLY6qxUv+zv3ZdKKg2Fp2lz/jvrOhgm6dYuTn/0RBER0XfTiWd7LOvru8Mw5WeNttz4n/g7XuCH78cZZQR3SvEY4BA8ZKS3fcfTYkMWfOdPk75OBwnCoGQcYpfCgMAiAAAiAAAiAAArYTcEaQiY2NFdYr58rGWOhkQUZrpc72XiCntxIIC4uk22+fIRdieAxff/2qWIQwryHhyjEGBTUX6ugJQo16kLBYZjAmtGXLMmE04idXNmVXXTgjYxcuZAYBEAABEAABEAABxwk4I3iwKiHvyPHOXEBAgNzNYfW0nTt3SvVDFm5+/vlnxzuHkh5HoF07NqITI89IxsR0FpZBe6pCDDvRLC42r+bn6oH06zeKBg8ep6s2O3uPUJVcoUtz9w12ZNxNHO2BAAiAAAiAAAj4NQFW0WMVOT6XxH/2hDvuuENajjNXprKyki65xGDq3VwepHkXgSlTZgr17SCznd66dTn98ccSs89cncjWyi67rNb6ITuBTklZJc13Wzs35+o+mKsPOzLmqCANBEAABEAABEAABOqJgDPGB/hcDe/KsBls3plB8G0CWj80ykjZ/UBq6hphPtt9uyG5uRnSB05+fi6lp++wat1O6ac7rtiRcQdltAECIAACIAACIAACLiTABiDYXDYbXuDdHQ68Om7NoaYLm0dVbiIQG5ukOsBkq4wlJWycxzFDH27qslubgSDjVtxoDARAAARAAARAAARAAARAwBUE4EfGFRRRBwiAAAiAAAiAAAiAAAiAgFsJQJBxK240BgIgAAIgAAIgAAIgAAIg4AoCOOzvCoqoo94JTJ78BjVp0lS2wx6uT50qld5yN2/+mQoKjtV7+2gABEAABEAABEAABEDAswhAkPGs+UBvLBAICGgqbObXCjLCdL7waB5I4eGtKCGhLy1b9hkdPPiXhZJIBgEQAAEQAAEQAAEQ8EUCUC3zxVn1wTFlZ++lrKw9lJOzjyorT6kjZEstw4dfLSy2COkGAQRAAARAAARAAARAwG8IYEfGb6bauwe6dOlsdQAstCQlDaKxY2+WaeHhUdSiRSsqLDyu5kEEBEAABEAABEAABEDAtwlgR8a359cnR8ceZffs2UTl5cXq+MLCWqpxREAABEAABEAABEAABHyfAAQZ359jnx1hWZlBkOEzMwggAAIgAAIgAAIgAAL+QwCCjP/Mtc+NtKamWjOmGk0cURAAARAAARAAARAAAV8nAEHG12cY4wMBEAABEAABEAABEAABHyQAQcYHJxVDAgEQAAEQAAEQAAEQAAFfJwBBxtdnGOMDARAAARAAARAAARAAAR8kAEHGByfVX4Z05sxpdaiBgSFqHBEQAAEQAAEQAAEQAAHfJwBBxvfn2GdHqDW/HBfX3WfHiYGBAAiAAAiAAAiAAAiYEggIDQ2dYZpsSGHP6c6E6mqtZSlnakJZENATYMeYXbv2l4lRUTEUEBBAlZWnxLWZuFboM+MOBEAABEAABEAABEDApwhAkPGp6fSvwRQWnqAWLaKoVav2cuDt23ehXr2GUXR0HO3evdG/YGC0IAACIAACIAACIOBnBJzbbvEzWBiuZxFgPzKHDx/0rE6hNyAAAiAAAiAAAiAAAm4h0MQtraAREKgHAjExnWnMmBvUmvPyDlNm5k4qKspX0xABARAAARAAARAAARDwTQIQZHxzXv1iVImJA8U4G8mx5ucfoQULZtK5c1V+MXYMEgRAAARAAARAAAT8nQBUy/z9E+DF4w8Li1J7v3v3JggxKg1EQAAEQAAEQAAEQMD3CWBHxvfn2GdHGBRk8B1TVlZo1ziDg0NpxIgJwupZX6qpqaHt29fThg2L7aoDmUEABEAABEAABEAABBqOAHZkGo49WnaSQKNGtWplXA0f/LcnsHWzpKRBwlRzU2rSpBkNGDCGwsNb2VMF8oIACIAACIAACIAACDQgAQgyDQgfTTccgS5d+po0Hh+fbJKGBBAAARAAARAAARAAAc8kAEHGM+cFvapnAuXlJSYtBAc3N0lDAgiAAAiAAAiAAAiAgGcSgCDjmfOCXtUzgdTU1XTqVJmulYKCo7p73IAACIAACIAACIAACHguAQgynjs36FkdBLSH/aurz9WRW/84JyeNUlJWq4lstjk3N0O9RwQEQAAEQAAEQAAEQMCzCcBqmWfPD3pngUBYWKTucH5ZWZGFnPrkoKDm1L59AiUmDhIWy/qpD1NSVlJ5ebF6jwgIgAAIgAAIgAAIgIBnE4Ag49nzg979TaBdu3iKioqhRo0aU0xMZ4qP70mNG9duKFZVnaXi4gKbWPXrN4oGDx6ny5udvYe2bl2hS8MNCIAACIAACIAACICAZxOAIOPZ84Pe/U3gqqumUrNmQWZ5pKauoTNnTpt9ZpyYl3dETWJ1tJSUVbRx41LpS0Z9gAgIgAAIgAAIgAAIgIDHE4Ag4/FThA4ygcaNA0xAnD1bSSzEbNli+24Kn4PZsWM95efnUnr6DqqoMLVeZtIQEkAABEAABEAABEAABDyOQKPo6Ogaa71q0sQ5Waeqqspa9XgGAjYRiI1NEmpltQ4wq6rOUEnJSeJzMTU1Vj++NtWNTCAAAiAAAiAAAiAAAt5HAIKM980ZegwCIAACIAACIAACIAACfk8A5pf9/iMAACAAAiAAAiAAAiAAAiDgfQQgyHjfnKHHIAACIAACIAACIAACIOD3BJw7AOP3+NwHYPLkN6hJk6aywerqauGVvpSOH8+hzZt/poKCY+7rCFoCARAAARAAARAAARAAAQ8gAEHGAybBli4EBDQl/uMQIAx4NW0aKB1CJiT0pWXLPqODB/+ypRrkAQEQAAEQAAEQAAEQAAGfIADVMi+ZxuzsvZSVtYdycvZRZeUptdfsFHL48KvNmidWMyECAiAAAiAAAiAAAiAAAj5GADsyXjKhS5fOVnvKPlWSkgbR2LE3y7Tw8Chq0aIVFRYeV/MgAgIgAAIgAAIgAAIgAAK+TAA7Ml44u+yRfs+eTVReXqz2PiyspRpHBARAAARAAARAAARAAAR8nQAEGS+e4bIygyDDZ2YQQAAEQAAEQAAEQAAEQMBfCECQ8eKZrqmp1vQeHu41MBAFARAAARAAARAAARDwcQIQZHx8gjE8EAABEAABEAABEAABEPBFAhBkfHFWMSYQAAEQAAEQAAEQAAEQ8HECEGR8fIIxPBAAARAAARAAARAAARDwRQIQZLx4Vs+cOa32PjAwRI0jAgIgAAIgAAIgAAIgAAK+TgCCjBfPsNb8clxcdy8eCboOAiAAAiAAAiAAAiAAAvYRCAgNDZ1hrQh7jncmVFdrLWs5UxPKGhNgx5hdu/aXyVFRMRQQEECVlafEtZm4Vhhnxz0IgAAIgAAIgAAIgAAI+AwBCDJePJWFhSeoRYsoatWqvRxF+/ZdqFevYRQdHUe7d2/04pGh6yAAAiAAAiAAAiAAAiBgnYBz2y3W68bTeibAfmQOHz5Yz62gehAAARAAARAAARAAARDwPAJNPK9L6JGtBGJiOtOYMTeo2fPyDlNm5k4qKspX0xABARAAARAAARAAARAAAV8kAEHGi2c1MXGg6H0jOYL8/CO0YMFMOneuyotHhK6DAAiAAAiAAAiAAAiAgG0EoFpmGyePzBUWFqX2a/fuTRBiVBqIgAAIgAAIgAAIgAAI+DoB7Mh48QwHBRl8x5SVFdo1kuDgUBoxYoKwetaXampqaPv29bRhw2K76kBmEAABEAABEAABEAABEGgoAtiRaSjyLmi3UaNatTKuig/+2xPYullS0iBhqrkpNWnSjAYMGEPh4a3sqQJ5QQAEQAAEQAAEQAAEQKDBCECQaTD0Ddtwly59TToQH59skoYEEAABEAABEAABEAABEPBEAhBkPHFW3NCn8vISk1aCg5ubpCEBBEAABEAABEAABEAABDyRAAQZT5wVN/QpNXU1nTpVpmupoOCo7h43IAACIAACIAACIAACIOCpBCDIeOrM2NAv7WH/6upzNpQwZMnJSaOUlNVqApttzs3NUO8RAQEQAAEQAAEQAAEQAAFPJgCrZZ48O1b6FhYWqTucX1ZWZCW34VFQUHNq3z6BEhMHCYtl/dQHKSkrqby8WL1HBARAAARAAARAAARAAAQ8mQAEGU+eHU3f2rWLp6ioGGrUqDHFxHSm+Pie1Lhx7YZaVdVZKi4u0OS2HO3XbxQNHjxOlyE7ew9t3bpCl4YbEAABEAABEAABEAABEPBkAhBkPHl2NH276qqp1KxZkCbFEE1NXUNnzpw2JFiJ5eUdUZ+yOlpKyirauHGp9CWjPkAEBEAABEAABEAABEAABDycAAQZD58gpXuNGwcoUfV69mwlsRCzZYvtuyl8DmbHjvWUn59L6ek7qKLC1HqZ2gAiIAACIAACIAACIAACIOChBBpFR0fXWOtbkybOyTpVVVXWqsczGwnExiYJtbJaB5hVVWeopOQk8bmYmhqr02dj7cgGAiAAAiAAAiAAAiAAAt5FAIKMd80XegsCIAACIAACIAACIAACICAIwPwyPgYgAAIgAAIgAAIgAAIgAAJeRwCCjNdNGToMAiAAAiAAAiAAAiAAAiDgdYLMJZfcRjff/AyFhkZg9kAABEAABEAABEAABEAABPyUgFcJMsnJQygpaZDwp9KOJk58hFq2bOun04ZhgwAIgAAIgAAIgAAIgIB/E/AqQSYy0iC4sGf7a699mNq06ejfM4jRgwAIgAAIgAAIgAAIgIAfEvAqQWbDhh8oLW2bOk3BwaF05ZWTKTAwRE1DBARAAARAAARAAARAAARAwPcJBISGhs6wNszGjZ2Tdaqrq61Vb+ezGunEMSKiNbVqFSPLsrd7Pi+Tnr7dzrqQHQRAAARAAARAAARAAARAwFsJOCelNMCoa2qqafnyuXToUJraOp+bSUjord4jAgIgAAIgAAIgAAIgAAIg4NsEvE6Q4elgYWblynl05sxpdXZGjZooPN975XDUMSACAiAAAiAAAiAAAiAAAiBgGwGvffMvLT1J69YtUkfJ6mVxcUnqPSIgAAIgAAIgAAIgAAIgAAK+S6CJNw9tz55N1L//hcIcc+15me7dz6OsrD11DikkJJxuvPEJat68hcxbUVFK8+e/QaWlhXWWRQYQAAEQAAEQAAEQAAEQAIGGJ+C1OzIKur17tyhR6ty5N/Hh/7pCYuJAVYjhvCEhYcI/zeC6iuE5CIAACIAACIAACIAACICAhxDwekFm376t8swM82zSpCm1bRtbJ9rIyGiTPEFBMOFsAgUJIAACIAACIAACIAACIOChBLxekCkvL6b8/FwVLzvKrCtkZu40yXLsWJZJGhJAAARAAARAAARAAARAAAQ8k4DXCzKMVXu2hQ/91xWysnbT1q3L6dSpMqqsrKCUlFWUkWEq3NRVD56DAAiAAAiAAAiAAAiAAAg0DAGvPuyvICsvL1KiZMuODDvp/OOPJbRp00+ynGuddqpdQQQEQAAEQAAEQAAEQAAEQKCeCPiEIFNVdVbFw+dkbA0QYGwlhXwgAAIgAAIgAAIgAAIg4FkEfEK1TDGjzGjLygy7M56FGr0BARAAARAAARAAARAAARBwFQGfEGS06mTsKBMBBEAABEAABEAABEAABEDAtwl4vSDTuHFjatmyjTpL9ggyjRo1psaNA9SyiIAACIAACIAACIAACIAACHgHAa8/IxMX14OCgpqrtAsKjqtxa5GhQ8dTcvIFFBgYQtnZe2jZsjl09myltSJ4BgIgAAIgAAIgAAIgAAIg4CEEvH5HpkeP81WUR49mUklJvnpvKdKhQ1caOHAsBQeHih2ZxhQf35MSEnpbyo50EAABEAABEAABEAABEAABDyPg1YJMWFhLKYQoTPfu3axErV67dOln8pyFGQQQAAEQAAEQAAEQAAEQAAHvIODFgkwjGjPmJgoIqNWOO3fuLO3fn2IT9fLyYpN8vDuDAAIgAAIgAAIgAAIgAAIg4B0EvFaQ6d17OMXGJqmUU1PXUmXlKfXeWmTfvq1UUHBUl8X4XvcQNyAAAiAAAiAAAiAAAiAAAh5FwCsFmXbt4mnYsPEqSBZCNm36Sb2vK8KWzVat+kqX7dChNN09bkAABEAABEAABEAABEAABDyXgNdZLevYMZGuuOIeato0UFKtrq6mFSvm0rlzVTZR5oP+fLC/V69hav5Dh/ZTRsZO9R4REAABEAABEAABEAABEAABzybgVYIMCyHjx09Rz8Uw2g0bFtOJE4dspjxhwoO6vIWFx2n16q91abgBARAAARAAARAAARAAARDwbAJeJcjExCSoQkxNTTWtWbOAdu363WHC6enbaeXKr2w+W+NwQygIAiAAAiAAAiAAAiAAAiDgUgJeJcj8+edq6tatP0VEtJYOLNPTd9gNg+soLy+lrKxddPLkMbvLowAIgAAIgAAIgAAIgAAIgEDDE2gUHR1d0/DdsL0H4eFRFBgYRHl5R2wvhJwgAAIgAAIgAAIgAAIgAAI+RcCrdmSYfElJgU9NAAYDAiAAAiAAAiAAAiAAAiBgPwGvNL9s/zBRAgRAAARAAARAAARAAARAwJcIQJDxpdnEWEAABEAABEAABEAABEDATwhAkPGTicYwQQAEQAAEQAAEQAAEQMCXCECQ8aXZxFhAAARAAARAAARAAARAwE8IQJDxk4nGMEEABEAABEAABEAABEDAlwhAkPGl2cRYQAAEQAAEQAAEQAAEQMBPCECQ8ZOJxjBBAARAAARAAARAAARAwJcIQJDxpdnEWEAABEAABEAABEAABEDATwhAkPGTicYwQQAEQAAEQAAEQAAEQMCXCECQ8aXZxFhAAARAAARAAARAAARAwE8IQJDxk4nGMEEABEAABEAABEAABEDAlwhAkPGl2cRYQAAEQAAEQAAEQAAEQMBPCECQ8ZOJxjBBAARAAARAAARAAARAwJcIQJDxpdnEWEAABEAABEAABEAABEDATwhAkPGTicYwQQAEQAAEQAAEQAAEQMCXCECQ8aXZxFhAAARAAARAAARAAARAwE8I/D/lwAPvLrIWNgAAAABJRU5ErkJggg==;" vertex="1" parent="1">
          <mxGeometry x="130" y="210" width="175.91" height="80" as="geometry" />
        </mxCell>
        <mxCell id="yK1BvCWjgx7OJvuE3ETC-16" value="" style="group" vertex="1" connectable="0" parent="1">
          <mxGeometry x="520" y="120" width="520" height="160" as="geometry" />
        </mxCell>
        <mxCell id="yK1BvCWjgx7OJvuE3ETC-17" value="" style="rounded=1;whiteSpace=wrap;html=1;" vertex="1" parent="yK1BvCWjgx7OJvuE3ETC-16">
          <mxGeometry width="519.9999999999999" height="160" as="geometry" />
        </mxCell>
        <mxCell id="yK1BvCWjgx7OJvuE3ETC-18" value="" style="sketch=0;points=[[0,0,0],[0.25,0,0],[0.5,0,0],[0.75,0,0],[1,0,0],[0,1,0],[0.25,1,0],[0.5,1,0],[0.75,1,0],[1,1,0],[0,0.25,0],[0,0.5,0],[0,0.75,0],[1,0.25,0],[1,0.5,0],[1,0.75,0]];outlineConnect=0;fontColor=#232F3E;fillColor=#ED7100;strokeColor=#ffffff;dashed=0;verticalLabelPosition=bottom;verticalAlign=top;align=center;html=1;fontSize=12;fontStyle=0;aspect=fixed;shape=mxgraph.aws4.resourceIcon;resIcon=mxgraph.aws4.lambda;" vertex="1" parent="yK1BvCWjgx7OJvuE3ETC-16">
          <mxGeometry x="13.065326633165826" y="41" width="78" height="78" as="geometry" />
        </mxCell>
        <mxCell id="yK1BvCWjgx7OJvuE3ETC-19" value="&lt;ol&gt;&lt;li&gt;Extract JWT token from request.&lt;/li&gt;&lt;li&gt;Obtain secret from AWS Secret Manager&lt;/li&gt;&lt;li&gt;Decode JWT token with secret&lt;/li&gt;&lt;li&gt;Get player_id from JWT token.&lt;/li&gt;&lt;li&gt;Valid player_id: Generate policy that &lt;b&gt;allows&lt;/b&gt; `execute-api:Invoke` and pass player_id as context.&lt;/li&gt;&lt;li&gt;Invalid player_id: Generate policy that &lt;b&gt;denies&lt;/b&gt;&amp;nbsp;`execute-api:Invoke`.&lt;/li&gt;&lt;/ol&gt;" style="text;html=1;align=left;verticalAlign=middle;whiteSpace=wrap;rounded=0;" vertex="1" parent="yK1BvCWjgx7OJvuE3ETC-16">
          <mxGeometry x="91.45728643216079" y="10" width="428.54271356783914" height="140" as="geometry" />
        </mxCell>
        <UserObject label="https://docs.aws.amazon.com/apigateway/latest/developerguide/apigateway-use-lambda-authorizer.html" link="https://docs.aws.amazon.com/apigateway/latest/developerguide/apigateway-use-lambda-authorizer.html" id="yK1BvCWjgx7OJvuE3ETC-20">
          <mxCell style="text;whiteSpace=wrap;" vertex="1" parent="1">
            <mxGeometry x="500" y="70" width="560" height="30" as="geometry" />
          </mxCell>
        </UserObject>
        <mxCell id="yK1BvCWjgx7OJvuE3ETC-30" value="" style="group" vertex="1" connectable="0" parent="1">
          <mxGeometry x="1080" y="230" width="120" height="120" as="geometry" />
        </mxCell>
        <mxCell id="yK1BvCWjgx7OJvuE3ETC-26" value="" style="rounded=1;whiteSpace=wrap;html=1;" vertex="1" parent="yK1BvCWjgx7OJvuE3ETC-30">
          <mxGeometry width="120" height="120" as="geometry" />
        </mxCell>
        <mxCell id="yK1BvCWjgx7OJvuE3ETC-37" value="Authorized Route" style="sketch=0;points=[[0,0,0],[0.25,0,0],[0.5,0,0],[0.75,0,0],[1,0,0],[0,1,0],[0.25,1,0],[0.5,1,0],[0.75,1,0],[1,1,0],[0,0.25,0],[0,0.5,0],[0,0.75,0],[1,0.25,0],[1,0.5,0],[1,0.75,0]];outlineConnect=0;fontColor=#232F3E;fillColor=#8C4FFF;strokeColor=#ffffff;dashed=0;verticalLabelPosition=bottom;verticalAlign=top;align=center;html=1;fontSize=12;fontStyle=0;aspect=fixed;shape=mxgraph.aws4.resourceIcon;resIcon=mxgraph.aws4.api_gateway;" vertex="1" parent="yK1BvCWjgx7OJvuE3ETC-30">
          <mxGeometry x="21" y="10" width="78" height="78" as="geometry" />
        </mxCell>
        <mxCell id="yK1BvCWjgx7OJvuE3ETC-31" style="edgeStyle=orthogonalEdgeStyle;rounded=0;orthogonalLoop=1;jettySize=auto;html=1;entryX=0.5;entryY=0;entryDx=0;entryDy=0;" edge="1" parent="1" source="yK1BvCWjgx7OJvuE3ETC-19" target="yK1BvCWjgx7OJvuE3ETC-26">
          <mxGeometry relative="1" as="geometry">
            <Array as="points">
              <mxPoint x="1140" y="170" />
            </Array>
          </mxGeometry>
        </mxCell>
        <mxCell id="yK1BvCWjgx7OJvuE3ETC-32" value="403 ACCESS_DENIED" style="edgeStyle=orthogonalEdgeStyle;rounded=0;orthogonalLoop=1;jettySize=auto;html=1;exitX=1;exitY=0.75;exitDx=0;exitDy=0;entryX=0.75;entryY=1;entryDx=0;entryDy=0;" edge="1" parent="1" source="yK1BvCWjgx7OJvuE3ETC-19" target="yK1BvCWjgx7OJvuE3ETC-53">
          <mxGeometry relative="1" as="geometry">
            <mxPoint x="1090" y="400" as="targetPoint" />
            <Array as="points">
              <mxPoint x="1060" y="235" />
              <mxPoint x="1060" y="320" />
              <mxPoint x="87" y="320" />
            </Array>
          </mxGeometry>
        </mxCell>
        <mxCell id="yK1BvCWjgx7OJvuE3ETC-36" value="Valid player_id" style="rounded=1;whiteSpace=wrap;html=1;" vertex="1" parent="1">
          <mxGeometry x="1085" y="150" width="110" height="30" as="geometry" />
        </mxCell>
        <mxCell id="yK1BvCWjgx7OJvuE3ETC-42" value="" style="group" vertex="1" connectable="0" parent="1">
          <mxGeometry x="1240" y="160" width="250" height="75.22000000000003" as="geometry" />
        </mxCell>
        <mxCell id="yK1BvCWjgx7OJvuE3ETC-40" value="" style="shape=image;verticalLabelPosition=bottom;labelBackgroundColor=default;verticalAlign=top;aspect=fixed;imageAspect=0;image=data:image/png,iVBORw0KGgoAAAANSUhEUgAAAnoAAABmCAYAAABcITzFAAAMQWlDQ1BJQ0MgUHJvZmlsZQAASImVVwdYU8kWnluSkJCEEkBASuhNEJASQEoILYD0ItgISYBQQgwEFTu6qODaxQI2dFVEsQNiR+wsig37YkFFWRcLduVNCui6r3xvvm/u/PefM/85c+7MvXcA0DjBk0hyUU0A8sSF0rjQQObolFQmqRtggA6oQAe48PgFEnZMTCSAZaD9e3l3AyDy9qqjXOuf/f+1aAmEBXwAkBiI0wUF/DyIDwCAV/El0kIAiHLeYlKhRI5hBTpSGCDE8+U4U4mr5DhdifcobBLiOBC3AKBG5fGkmQDQL0OeWcTPhBr0XoidxQKRGAANJsR+eXn5AojTILaFNhKI5fqs9B90Mv+mmT6oyeNlDmLlXBRFLUhUIMnlTfk/0/G/S16ubMCHNazULGlYnHzOMG83c/Ij5JgKcY84PSoaYm2IP4gECnuIUUqWLCxRaY8a8Qs4MGdAD2JnAS8oAmIjiEPEuVGRKj49QxTChRiuEHSyqJCbALE+xPOFBcHxKpuN0vw4lS+0PkPKYav4czypwq/c131ZTiJbpf86S8hV6WP04qyEZIgpEFsWiZKiIKZD7FSQEx+hshlZnMWJGrCRyuLk8VtCHCcUhwYq9bGiDGlInMq+LK9gYL7YxiwRN0qF9xVmJYQp84O18HmK+OFcsMtCMTtxQEdYMDpyYC4CYVCwcu7YM6E4MV6l80FSGBinHItTJLkxKnvcXJgbKufNIXYrKIpXjcWTCuGCVOrjGZLCmARlnHhxNi88RhkPvgREAg4IAkwggzUd5INsIGrraeiBd8qeEMADUpAJhMBRxQyMSFb0iOE1HhSDPyESgoLBcYGKXiEogvzXQVZ5dQQZit4ixYgc8ATiPBABcuG9TDFKPOgtCTyGjOgf3nmw8mG8ubDK+/89P8B+Z9iQiVQxsgGPTI0BS2IwMYgYRgwh2uGGuB/ug0fCawCsrjgL9xqYx3d7whNCO+Eh4Tqhk3BrgqhE+lOUo0An1A9R5SL9x1zg1lDTHQ/EfaE6VMb1cEPgiLtBP2zcH3p2hyxHFbc8K8yftP82gx+ehsqO7ExGyUPIAWTbn0fS7enugyryXP+YH2Ws6YP55gz2/Oyf80P2BbCN+NkSm4/tx85iJ7Hz2BGsATCx41gj1oodlePB1fVYsboGvMUp4smBOqJ/+Bt4svJMFjjXOnc7f1H2FQony9/RgJMvmSIVZWYVMtnwiyBkcsV8p2FMV2dXdwDk3xfl6+tNrOK7gei1fufm/AGA7/H+/v7D37nw4wDs9YTb/9B3zpYFPx3qAJw7xJdJi5QcLr8Q4FtCA+40A2ACLIAtnI8r8AA+IAAEg3AQDRJAChgPo8+C61wKJoFpYDYoBeVgCVgJ1oINYDPYDnaBfaABHAEnwRlwEVwG18EduHq6wAvQC96BzwiCkBAawkAMEFPECnFAXBEW4ocEI5FIHJKCpCGZiBiRIdOQOUg5sgxZi2xCapC9yCHkJHIeaUduIQ+QbuQ18gnFUCqqgxqj1uhwlIWy0Qg0AR2HZqIT0WJ0LroIXY1WozvRevQkehG9jnaiL9A+DGDqmB5mhjliLIyDRWOpWAYmxWZgZVgFVo3VYU3wOV/FOrEe7CNOxBk4E3eEKzgMT8T5+ER8Br4QX4tvx+vxFvwq/gDvxb8RaAQjggPBm8AljCZkEiYRSgkVhK2Eg4TTcC91Ed4RiUQ9og3RE+7FFGI2cSpxIXEdcTfxBLGd+IjYRyKRDEgOJF9SNIlHKiSVktaQdpKOk66Qukgf1NTVTNVc1ULUUtXEaiVqFWo71I6pXVF7qvaZrEm2InuTo8kC8hTyYvIWchP5ErmL/JmiRbGh+FISKNmU2ZTVlDrKacpdyht1dXVzdS/1WHWR+iz11ep71M+pP1D/SNWm2lM51LFUGXURdRv1BPUW9Q2NRrOmBdBSaYW0RbQa2inafdoHOoPuROfSBfSZ9Ep6Pf0K/aUGWcNKg60xXqNYo0Jjv8YljR5Nsqa1JkeTpzlDs1LzkGaHZp8WQ8tFK1orT2uh1g6t81rPtEna1trB2gLtudqbtU9pP2JgDAsGh8FnzGFsYZxmdOkQdWx0uDrZOuU6u3TadHp1tXXddJN0J+tW6h7V7dTD9Kz1uHq5eov19und0Ps0xHgIe4hwyIIhdUOuDHmvP1Q/QF+oX6a/W/+6/icDpkGwQY7BUoMGg3uGuKG9YazhJMP1hqcNe4bqDPUZyh9aNnTf0NtGqJG9UZzRVKPNRq1GfcYmxqHGEuM1xqeMe0z0TAJMsk1WmBwz6TZlmPqZikxXmB43fc7UZbKZuczVzBZmr5mRWZiZzGyTWZvZZ3Mb80TzEvPd5vcsKBYsiwyLFRbNFr2WppajLKdZ1lretiJbsayyrFZZnbV6b21jnWw9z7rB+pmNvg3Xptim1uauLc3W33aibbXtNTuiHcsux26d3WV71N7dPsu+0v6SA+rg4SByWOfQPowwzGuYeFj1sA5HqiPbscix1vGBk55TpFOJU4PTy+GWw1OHLx1+dvg3Z3fnXOctzndctF3CXUpcmlxeu9q78l0rXa+NoI0IGTFzROOIV24ObkK39W433Rnuo9znuTe7f/Xw9JB61Hl0e1p6pnlWeXawdFgxrIWsc14Er0CvmV5HvD56e3gXeu/z/svH0SfHZ4fPs5E2I4Ujt4x85Gvuy/Pd5Nvpx/RL89vo1+lv5s/zr/Z/GGARIAjYGvCUbcfOZu9kvwx0DpQGHgx8z/HmTOecCMKCQoPKgtqCtYMTg9cG3w8xD8kMqQ3pDXUPnRp6IowQFhG2NKyDa8zlc2u4veGe4dPDWyKoEfERayMeRtpHSiObRqGjwkctH3U3yipKHNUQDaK50cuj78XYxEyMORxLjI2JrYx9EucSNy3ubDwjfkL8jvh3CYEJixPuJNomyhKbkzSSxibVJL1PDkpeltw5evjo6aMvphimiFIaU0mpSalbU/vGBI9ZOaZrrPvY0rE3xtmMmzzu/HjD8bnjj07QmMCbsD+NkJactiPtCy+aV83rS+emV6X38jn8VfwXggDBCkG30Fe4TPg0wzdjWcazTN/M5ZndWf5ZFVk9Io5orehVdlj2huz3OdE523L6c5Nzd+ep5aXlHRJri3PELfkm+ZPz2yUOklJJ50TviSsn9kojpFsLkIJxBY2FOvBHvlVmK/tF9qDIr6iy6MOkpEn7J2tNFk9unWI/ZcGUp8Uhxb9NxafypzZPM5s2e9qD6ezpm2YgM9JnNM+0mDl3Ztes0FnbZ1Nm58z+vcS5ZFnJ2znJc5rmGs+dNffRL6G/1JbSS6WlHfN85m2Yj88XzW9bMGLBmgXfygRlF8qdyyvKvyzkL7zwq8uvq3/tX5SxqG2xx+L1S4hLxEtuLPVfun2Z1rLiZY+Wj1pev4K5omzF25UTVp6vcKvYsIqySraqc3Xk6sY1lmuWrPmyNmvt9crAyt1VRlULqt6vE6y7sj5gfd0G4w3lGz5tFG28uSl0U321dXXFZuLmos1PtiRtOfsb67earYZby7d+3Sbe1rk9bntLjWdNzQ6jHYtr0VpZbffOsTsv7wra1VjnWLdpt97u8j1gj2zP871pe2/si9jXvJ+1v+6A1YGqg4yDZfVI/ZT63oashs7GlMb2Q+GHmpt8mg4edjq87YjZkcqjukcXH6Mcm3us/3jx8b4TkhM9JzNPPmqe0Hzn1OhT11piW9pOR5w+dybkzKmz7LPHz/meO3Le+/yhC6wLDRc9Lta3urce/N3994NtHm31lzwvNV72utzUPrL92BX/KyevBl09c4177eL1qOvtNxJv3OwY29F5U3Dz2a3cW69uF93+fGfWXcLdsnua9yruG92v/sPuj92dHp1HHwQ9aH0Y//DOI/6jF48LHn/pmvuE9qTiqenTmmeuz450h3Rffj7medcLyYvPPaV/av1Z9dL25YG/Av5q7R3d2/VK+qr/9cI3Bm+2vXV729wX03f/Xd67z+/LPhh82P6R9fHsp+RPTz9P+kL6svqr3dembxHf7vbn9fdLeFKe4lcAgxXNyADg9TYAaCkAMOD5jDJGef5TFER5ZlUg8J+w8oyoKB4A1MH/99ge+HfTAcCeLfD4BfU1xgIQQwMgwQugI0YM1oGzmuJcKS9EeA7YGP01PS8d/JuiPHP+EPfPLZCruoGf238BoIF8bwqzkqAAAACKZVhJZk1NACoAAAAIAAQBGgAFAAAAAQAAAD4BGwAFAAAAAQAAAEYBKAADAAAAAQACAACHaQAEAAAAAQAAAE4AAAAAAAAAkAAAAAEAAACQAAAAAQADkoYABwAAABIAAAB4oAIABAAAAAEAAAJ6oAMABAAAAAEAAABmAAAAAEFTQ0lJAAAAU2NyZWVuc2hvdHyFQ28AAAAJcEhZcwAAFiUAABYlAUlSJPAAAAHWaVRYdFhNTDpjb20uYWRvYmUueG1wAAAAAAA8eDp4bXBtZXRhIHhtbG5zOng9ImFkb2JlOm5zOm1ldGEvIiB4OnhtcHRrPSJYTVAgQ29yZSA2LjAuMCI+CiAgIDxyZGY6UkRGIHhtbG5zOnJkZj0iaHR0cDovL3d3dy53My5vcmcvMTk5OS8wMi8yMi1yZGYtc3ludGF4LW5zIyI+CiAgICAgIDxyZGY6RGVzY3JpcHRpb24gcmRmOmFib3V0PSIiCiAgICAgICAgICAgIHhtbG5zOmV4aWY9Imh0dHA6Ly9ucy5hZG9iZS5jb20vZXhpZi8xLjAvIj4KICAgICAgICAgPGV4aWY6UGl4ZWxZRGltZW5zaW9uPjEwMjwvZXhpZjpQaXhlbFlEaW1lbnNpb24+CiAgICAgICAgIDxleGlmOlBpeGVsWERpbWVuc2lvbj42MzQ8L2V4aWY6UGl4ZWxYRGltZW5zaW9uPgogICAgICAgICA8ZXhpZjpVc2VyQ29tbWVudD5TY3JlZW5zaG90PC9leGlmOlVzZXJDb21tZW50PgogICAgICA8L3JkZjpEZXNjcmlwdGlvbj4KICAgPC9yZGY6UkRGPgo8L3g6eG1wbWV0YT4Kp9JIIAAAABxpRE9UAAAAAgAAAAAAAAAzAAAAKAAAADMAAAAzAAAH3/l1INUAAAerSURBVHgB7N17TJV1HMfxD3dFLoYgC5eXkc2NJC+4udIl5aJFusR7y2ixXIxJbbg51KmYt9SZOrCZt5V5YUMx1yzDy9B0MqeWpfKPecnckCnidSpwOs9pbB6MHWHnOZ7z4302h8/D7znP7/v6fcf58Oh5TtAraa87xAMBBBBAAAEEEEDAOIEggp5xa0pBCCCAAAIIIICAS4CgRyMggAACCCCAAAKGChD0DF1YykIAAQQQQAABBAh69AACCCCAAAIIIGCoAEHP0IWlLAQQQAABBBBAgKBHDyCAAAIIIIAAAoYKEPQMXVjKQgABBBBAAAEECHr0AAIIIIAAAgggYKgAQc/QhaUsBBBAAAEEEECAoEcPIIAAAggggAAChgoQ9AxdWMpCAAEEEEAAAQQIevQAAggggAACCCBgqABBz9CFpSwEEEAAAQQQQICgRw8ggAACCCCAAAKGChD0DF1YykIAAQQQQAABBAh69AACCCCAAAIIIGCoAEHP0IWlLAQQQAABBBBAgKBHDyCAAAIIIIAAAoYKEPQMXVjKQgABBBBAAAEECHr0AAIIIIAAAgggYKgAQc/QhaUsBBBAAAEEEECAoEcPIIAAAggggAAChgr4JOj17/+yevfurdjYWNXU1KiiYp+hnJSFAAIIIIAAAgj4j4DtQa+wsFADBw5wVdzY2KiqqiqtXLnKfwSYCQIIIIAAAgggYKiArUGvX79+mj+/SPX19VqwYIEuX/5bDofDUErKQgABBBBAAAEE/EvA1qCXnp6u3NxPtX//Aa1du9a/Kmc2CCCAAAIIIICA4QK2Br0xY8Zo8uRJ2rVrl7Zu3WY4JeUhgAACCCCAAAL+JWBr0Bs7NksTJ05UeXm5tm3b7l+VMxsEEEAAAQQQQMBwAYKe4QtMeQgggAACCCDQcQVsDXpTpnygUaNGqbS0VDt27Oy4ylSOAAIIIIAAAgg8AwFbg97cuXOUkpKikpI1qqysfAblcUoEEEAAAQQQQKDjCng16MXExCgxMVHR0dHOe+cNVEbGW6qrq1NBwXTduXOn4ypTOQIIIIAAAggg8AwEvBr0mm+n0lzH+fPntXTpMlfYa97HVwQQQAABBBBAAAHfCHg16CUkJKhPnz6uK3qDBg3SkCFpOn36tJYtW64HDx74piLOggACCCCAAAIIIOAS8GrQa2m6ePEiJScnuz7y7OjRoy2/zTYCCCCAAAIIIICAjQK2Br3s7A+VmZnpuoeedS89HggggAACCCCAAAK+E7A16HHDZN8tJGdCAAEEEEAAAQRaChD0WoqwjQACCCCAAAIIGCJga9DLysrSpEnWR6Dtcv7zLZ91a0jPUAYCCCCAAAIIBIiArUFv5MiRmjr1E1VU7NO6desChIRpIoAAAggggAACZgjYGvRSU1M1e/YsXbt2TTNnztKtW7fMUKMKBBBAAAEEEEAgAARsDXpBQUFasmSx6956DQ0NunHjhk6cOKlNmzYFAA1TRAABBBBAAAEEAlvA1qBn0YSFhWn48OGusNe1a6wuXbqssrKywFZj9ggggAACCCCAQAAI2B70AsCAKSKAAAIIIIAAAkYKEPSMXFaKQgABBBBAAAEEJIIeXYAAAggggAACCBgqQNAzdGEpCwEEEEAAAQQQCPigFxoaquDgYD169EgOh0MhISGuP9a7fJuamryywjk5OUpM7O72XDt3lqu6utptHxueBfLy8hQTE6P169ertrbW8wH/MyI7O1s9eiRpw4aNqqmpcRthvdPbegOQ1QtWT1iP8PBwt223A3y8ERQc5OzPYDU1Njn70yFrviGhzm3n3619nh4ZYwao63NdtLv0uO7ffehpON9HoN0CoycPUefO4SrfUqWHDxra/Ty+OPDdCWmKjIrQ3vJTqq+754tTBvQ5Mt5z/hyJ6+JWw5ED1bpy8brbPjY8C3ij90aOSlW3hGj98sNvqrt+1/2kQVJoaIjrNayx4b/XiNCwEMkhNTQ0uo9tZSvgg15ubq7S00do3rwinT17VhMmjNe4ceNUXFyiQ4cOtVJ223YXFBQoKSnJdVC3bnGKjIzUihVf6dixY217IkZr8+bvFBERoTlz5rY7KC9cuFB9+76oGTNm6MKFi26q8fHxWrOmRGfOnFVRUZErSJWWbncFwmnT8t3GPouN/oN7yvrBcLjinH7dd069khP0/tTh+v34Re0pO+lxSjmfv6nuz8eqeNFPul1/3+N4fx5gBd6015LVu293lW444ndTjYrupKEjXlKjM4Af3POn382vPRNqS035s99RF6fByqIfdf+ef/9SMf2L0QoLD9XmrysJK0/RGFlThjqDRZRrZHRsZ0V0ClP591Wq/uOfpziaIY8LeKP3svNGKKlnnDauOqCaqzcff3rFdI1UXuHbuvxXrbasPez8D3dS4ZIs3bxxV19/uddtbGsbBL3WZFrZn58/TcOGDSPoteLjabcVzqwreqtXr37iapynY5u/31GDnvVC9vFnbyguPkrfFh/U1St1rt/qml0C7at1RSF3Roau197WN8sr/G76qWm9lDl+sE5VXdDPO0/53fzaM6G21BRIQW/8R68qsku4dm8//uQVkfZAdaBjrCu3KQNeIOi1c8290Xt2B71/AQAA//8A9fjJAAAlz0lEQVTtXQd4VMUWPkjvLXQCSEeaAj6QXkSKFEWxAD5ApTdFAREQafpQiiCKtCcICCgPERSQIkVQiiK9SSf0GqpS3/kHzubuzd1kd5PdBHIm35fb5s6d+e/szD+n3USly1W7Q/dx6tChA9WoUZ3ef38A7dixg154oSk9//zzNGbMZ7Rq1apYb1nXrl2ocuXKNGLESFq7dm2sl68FRo/AkCFDqFChgtSrVy86cOCg2w0hISH0+eef0fbtO2jAgAGUKFEimjVrJp08eZK6dOnqljcuDkqWzUMNXihHvyzZSauX7qS8BbJQs7ZVaPOGg7Rg9kbHKqXPmIpqNy5NBYpkp4ceSuTKc/2fmxR26Cz9+O0fdPni367z98tOhkypqUOvOnT29CUaP2xJvKt2qXJ56emmZenPdQdo0Zw/4139/KmQL23q2rc+pU6bgj4Z8ANdu3rdn8fpPfcBAo1efpyKPxpK301bR7u2Hr0PavzgVbFlp+qUM08m+u+on+nksQtuDUyXIRV16l2XDu8/TdPH/ULEU0Dv/zShC+eu0NihP7nl9XSQKKERvaRJk9KdO3fo5s2bBpNs2bJRSEhm2r//AF27ds0TTq7zvhI9PC979uyUKVMmLuMOE45TdOLECVd5sgNCkiRJEnN448YNOR1pi/KQUH+0w55SpkxJefLkodu3b9Phw4fpn3/+sWdxHSdOnJiJw0NuZaVJk4YKFMhP586dp7CwMMdnuArwcsfaNrnFU/3lumyBSb58+Ux7Dh48aLYJieilTJWMXnujFqXhCXfvrrv9JiRbWlq/ai/lzpeZChXPQVM/X0mnjocLZJG2SZMloZCsaXnSTk7h56/S6RMXI+WxnkjEZDJTSBpKlz4lnTl1iS6Fe/5dJE7ykLn11s3bZps8Bff3XBkM8Tx35nKk/oO+kDjx3XtAYNu+XZuQb9LIZdYq0K1btyPd68rAA11GJokZMqehc0wS0SanlCRJYnP65q1b+OlFSmhnYu7/t/l3dJufhwQijd8EUgkm5fWaPEab1x+kxd9vNufk382bXGYsJdQzY0hqSpsupanmhbNX6PzZyx5LB4ZITr9/p2v+tslO9KJ7t/YKo+9myZ6ebly/afpcVJhJv8C4dfv23ZcFXDD53bxxk/v3RR6n3DGXe6zP9fSuJQ/6q/Q/OWff3rh+yxFb5HuI+y5+S2jbqRPhdO2KZwIs9fOlTfa6eHNsfoMMGX4zSBkzc19Kn8oQhn/+9jyXSNm+Ej2v+yt30yQ8x9zhPxkf5JnWLeqfiP88vbtkyZNQ1hzp6Q73i1M8dqE/eUrS163jB95V9twZeUy6RqdP8tjnMBZ4Ks/TeXm31uue6m/Ng330v2w505t+fpLHbbRLiZ4dJduxrxK9qVO/oqtXr1KfPn2pb98+lDNnTlMiBs2VK1fS+PETXCTQ9ihz6C3RS5s2LXXu3IlKlChBQs6kvEOHDtHEiZNo9+7dcopffmIaO/ZzypAhA3Xv/pYhWa6L93Zy5cpFI0eOoPDwcGrfvgP/sCMGvsyZM1OHDu2pZMmSRoqFW9Cm5cuX05dfTnYkfCL9hHTyyJEj1LFjRypYsIDr/qNHj5q6OE0o9rpFdVytWlXq1KmTW5b33utPu3btcjtnP6hXry61aNHChR+I+MiRn1DTpk0DItHDO+vYsQMT/yw0efJklgput1cpxse+SvQq1SpKVZ96hLZvOkLzZmygyk8Wo4LFstPkT5ebuqRImdQMGJDu2RMkZvWfL0N582cxq0C5Dgnash+20r57xFHOY1v2ifxU4+mSjPldkoRzFy9cpXkzf6cjB87g0C2BDCTmCXn04B/p2eblqWDR7AQChXQ87Dz976u1bkSxWOnc9Eyzf7mV4XTw3XSWLmyJLF14tPzDVKNeCUK7JYGIzp/1Ox3ad1pOmS2kcZBg/b5mHy2Z507UMFm17FzdTCDzuW3b/jxs7qn77GP0WIWH3cpxOhg18Ee6esXzIsrpHvu5lKmTUUOW7uYtmIUXeRF4Ix+I+09zN1HYwbNut2XOktaQY5D1iSOXul3DwVsDGxEmxmF9v6cbN+6OD/62SYjep4MXUF0mvNG9W6lMugwpqfHL/zILETmHyWzL74doMb+Hm/fqJdewFcn2H7/tp59/3EqNXnqcJdjZKMm9fgiJ4rQvVtEZTNT3kvyW5BjbqWNXRsLMev3JhqXo8coFraci7U8YsdTtOciAetSsX4LQ/6xEEe9n3swNjosNf9oUqTJenHh7cGMCoZsyZgW99HolQh9Bwri99Y/DRhotJNCpOG+Jnq/9FaSr87v1jFTYCVPUJTOT5rZv1aYrl/+hMR8sdC24cA39qP7zZenhglld4xfahH60hBde0r+RV1KV2sXMGAnpJH4jDV4oSzlCM7rmtLO8cB0/grUHMSR7/vQ91LFcpQLcj0rymHl3MYn3Nvfr9VSFx3WV6MlbdNi2bt2aVamV6KOPPjbEqXHjxtSoUUNDpH777bdId4DoJUvGq7FTp4wEb/XqNUaSVr16NSN5W79+PQ0bNjzSfXLCW6InpGzfvv20c+cOluKdNJKCIkWKUMWKT3AnvUH9+vVzUz02a/YyPfPMMzRv3jyaNm26PNK1bd68GaF99uuQePXv/x6lTp2aNm7cSJs3bzFtqlChgiFEO3fu4uv9XeXIjhA9PAvthzRwx46dTCQvEOpfunRpatasuZGiyT3+bFG/8uXLm1urVq1CWbJkoeiIXuPGjah58+bmHS1ZsoTOnDlr6lOyZAn6+++/KV26dI6qWxDejz4aavoC+gRWXhMnTqDTp0/TO+/0jrL69evXp1atWpo8O3fuZMzejzK/PxdBdOo88yitXbGH1q7cYybD51s+Qdv/PBKJjKB8kCLcM3vKb/TXjuORiJ6nOoQ+HEIvvlbJELbD+8/Qwb3c31n6EJI9HRV+JIdR0Sydv8Xt9mp1HqGKNYsSSCPUlZAs5cqbiUqUyWNWnd98+Svt33PS7R4hA3/tPM4SwFS0e9tRIw0sViq3Gcx2bgmjudPXu+7Jws8vWjKXOU6RMpkZ+DCJ//HrPlce7Oxkkmed1HFOiBvasWk9148leZCugJhh8p01aQ0d+OsUspoEstqqSw0KyZaOZk9m/LiOkp7idwBSa1eZg0Tn4NU/UracGagQY3Xi6AXaa7kX19au/CtKyQLyRJeEtIEQg0SfP3PFkGRIaouVymWkIF+xtNaqypF7fCF6/rZJ3i0wTZU6ecS75f4IvO3vFu2FqrdN9yeNxAuqpj3bjxMkgSXKhLKkKY0hYSBj9iSkCGXevHGbipTMSYf2njbSXkiW8zPpmzN1nenHci+kIkVK3O1L6KOQEEdH9EBWga89JeM6lq2Q3xCKcR8vNs+VPJCIt+JFAfoRCPiOzWGGWGEBVZTfE/ovTA/sxN+fNskzfdmC6CXlhcKF81e4XjdpBy8KIXksVS6PwXzPtmP0v6mezYy8JXrS93zpr9XrFacnqhcxY93yBdsiNQuLtgrVC0e6jnfbrG1Vs6CDJuMAjzvocxg7QIjwewHxtychengWyBj6Hsa/K5f/NgQ4f+FsNLTPXDOe2e/15difvlehWmGqwYsFjK8b1+7nBfQ1Qn3y8ULvOksp8RtzUt2m5f4PrQ4WFZgHoLp9470GZnHx5eifvar2fa+69aqVlkwgesmTJzdqzb59+xnSgMvp06c3BCFjxoyOBEKK8JboQQWaI0d2+uuvvXKra9u06fNGKrV69WoaPfpT13moeEeN+sRI7Dp06OgmsQNhgcQPKuA33niTjh075rpv0KCBBAI5d+5c+vrrGa7zUEH17v2OIUjDhw+ndesiJlxkEqIH9e7mzZuNXSNIlKTQ0NBYU99Kme+9189IOaMieng/aCswtOcTCS7Kc7LRk+f4swUx7t79TXPrmjVr+F2M9qeYWL2nVoOS9K8qhYw9H+z67BI9p4dhJY2BARMT7ABxnzWBAGGwtErAUqdJTh3fqWsG0ymfrTDSOLmnfNVCVJOlfCA89oFFyMCxw+eM/Yio1zAptHnrSbNyHsk2Xk4qJF9s9B4ulJWlFZVNOZiIIQGQBFLbon1VMwljoLRKoCExaN21ppEiTfpkmZEugryBXIMsTR6z3FHChLJ9sWeTuviyhUopI6vIgZ094T1j0hJJrlyXydYXoif3YutLm/x5t7UalOL+WpBALuawVBaSPCRIg1p1rkF453bSjetCiqCWu8gS2m95UXGeFxqSMAmiX1++FDE+yTVsYeeKMqIjetZ7XPs8cT73SgUqXDyno/S3Wp3ivAAqYsjF1xNWu0mdROLuJDWOaZtc9YtmxxA9/k2jT3zFv12QBqRU/JsWsw8nAiHFekv0/OmvIPftezxliJaR2N3rD3g25jTYnoHIgChD0yDplQ7VDCH/bcVuWrEwQrMCbcELrSsagjSHyetu7mfWJEQP/ejAnlNG0i94IB8WmrGlvpXnetP3sFhAW4GhvY/KAhblRfWe5Hn+bBMs0Rs3bjwtW7bMDTORqP3002KaNGmS2zU58JboSX6nbe7cudmZYzirS8PorbfecssCyVzx4sVp6NCh9McfEcb5kK716fOuUXeC/EhCXtwDmzeQQ6h1rUmuO0kqhehBJdq5cxe6dCnih2YtIzb3vSF6VatWNWrv3bv3GKmn9flQtX/yyUhzKraJHtTnkGxCdbt48WI6f/689dFxsg/bFEyQDyVOxKrWk4bEpEmXwqW6daoUpAxQo8L2bfzwJa7J1imvnJPV5t6dJ+jbyb/KabOFmqFLn/pmkILKGCt6SUIG5rCqZLfNkPvVbjWNVAwqRkxC9uQL0QORA6HbsHov2SWRKFeug8zZ7RVLls1rVDhY2f/wze+G+CXhNn3JbYEqx1PyhRR5KsPf8yDpkIxBqgm1l6S4IHpev1smTG+z6hiTGhYEWBhYkywYIKEBkbMmIUU4NxOSWZvk2JrXad+bydbpPpwTsob+MWPCLy4bQVzDouiN9xsY1TrMEPZsdycWULl3H9iQpbu3aOT783GLK8W0Ta6CotkRorfwfxtZ0n3QLbdI1DayShymAE7JW6LndK+c89RfcV3eDcYVjC+SIM2C1gGSKquUV3CDuhnk8KplUYd75bqTpFKIHqRmnw9dFKUNpdQjpltpn53AWcuFxLnhi+WM8xxsqq1JftM4p0TPikwM9kWi52QHV7ZsWZYS9TSqTxj8OyVfiR7UlKVKlSSoFCE1hNw1WbKkVK1aNTp79qwhZ9bnVK5cmfAMSN8ghZPUrVtXqlSpEnuUjqUVK1bIaRJ144YNv9MXX3zhskVABqyY0qVLa8o5dOgw9ejRw3UfdoTorVu3jvOMcLsWqANviJ7Uy66iljpNmjSR0rI9XWwTPSk/vm0LsLqp7rOPss1KKlfVIO2Ajd2vP+9yk24hA2z6MHlBPbx8YWR1iasQyw5ssB5j+yOoPKBStqcXX61k1GewJ9nJqitJQvTs6i5cf4HvgZ2Vp4nbF6L35vsNjRoHgylW/jDediXehf0UCB1UVJgA7Am2OrgONRtW1SB8sF+KKgWL6EHlmI8lllBRpk6TwqhmQERRX9gfYrKTJJNCMCV63r5bqG3RH2A7BRtBe4IUGUbnTl7WMnnj/cDL19fkzWTrVCZUuU1bVTRSxC8//TkSqcBCC1KxKyxJxCICjjuuvnevC0L6BOclEL2/r91wPSambXIVFM2OED0nO7hCxVh63eoJQ5zxO3RKvhI9X/orngePXjwD0jdI4SQ15nOP8DVEDYDdnSTYUMKWEqYqP87+IwJvZGDMId3FIggLOrwTaxKih0UnFijBSN70PakXxlYnFTZUsZB6K9GLpTcmRO/VV1+jy5fdPdsQsgMED04Ib77Z3fGJ3hI9kKw2bV7n0C81WB1219D6+vXrxt4N16CehPStTZu2bs+B48a4cV8Ye7m2bdsZKVuqVKnYSWScUeXinNWTFs+oXbu2WxlOB3BAadWqtdslIVTz58+nqVOnuV0L1IE3RA8OEdWrV+c6TaX58yMP+iDAoaG5EwzRw7uAVA02QbBnwYQJNRZsVjCxzJy42k3K9kxztutjG7lF3/1Jf6494NWrFCIHp4ZtGyMTIFEvgDiCQEoSoucUggMTDCYa2PY5OX54S/SgVu7a72l5ZJRbSPsg9bMnSGbasQoJaiL7hGPPK8eBJnoYB0DgSz2ez7xPPBeOCnfJBEuTWDIGFfXoQT9KlYydETyVg0n0vH23QuQ8hX2QMBFo48c2IiikCNJicTRyNdqLHW8mW3sxIGew4cRva9rYVW6/IcnrrfMQ8v931DK2p4zQqMS0TVKH6LZC9Jzek7wTJ3It5XpL9Pzpr3iGaASSs5PQ6CELjJQNtnMYO+BhPZqdfayetN46D8EcZER/dymqEKp1q/4yTj3SxkBuvel7Mn7C0Qh1sycQV0hFlejZkfHzWIjea6+9HklVKUQP9m+wg3NK3hI9xPIDkYI365QpXxnnACFosAMEmXMienhm69atqF69euz5OYUWLFhAtWrVonbt2tLSpUuNV7C1XkL0INGzevFa82Afql2UZU1C9GbOnEVz5syxXgrYvjdED97DIMhK9CK/BrHRA3mqWKOI8SCEihZSF0kBJXo2iV8wiR4kRatt9obSZtnC7tCqWpbzIrmBRABSI7HXk+tO20ATPbHDA2lb9sMWVuucc014UM9DXe4z0RvEXrdMEK1et9a2+dImX9+tkIroiJ6TxE9I0UF2/JjBCxdfkzeTrbVMYASva0yudomSNZ8QPbwjpwWQNe9WXiBB8icppm2ScqLbBovo+dNfpe61G5U2jleyEHv0X/mo3nNlaBM7fS20xagUogeJnt3rXMrDFqpd+6JOiN7Kn3YYbYc1f6D2vel7iH5Qmhd0SvQC9RZs5QrRc1LdlitXjnr27BGl6rZLly5UpUplE+bDyatXHgenihw5clC3bm/Q8eMR3n64XqRIYRo0aJBHohfKThDDhw8jhGHp0aOnyYt73n23D+3d6y6tePrp+tSyZctInrhSj6i2cUH0+vXra0LASIBrp/qJs0pcqG7heQy1MLyy42MSomekHkxaujIZgMrssw8XmTAoqLOobu2GzFG1J6aqWydpQmxJ9FDv7gMashQ8KQ17b56LDEXVHus1hGl4tVstY2/1O3v3wh4Rgaans9eexGyz5pd9X0iR3OPLFhJGSJWcVKO582amVzpWM6rEURaJHmKkte/JQaYRJoLtL60J9mI9hjQ2p+KC6MWG6tZfovcyO+pA/T193CrjZWnFJdI+/26atKjAHrs5jbe3PUaiNT+8K9F3/JE0BpvoOapu7zkewebRo+qWQ9kUfyzUeMfD69lT8qe/Sllwgnj9zQh1K/o2+vgUdoY6diTC5hf5RXXrSc0pZTpt44LoedP3hCR7atMb/Vl1yyYlKtFzeqt+nBOiN2HCBFqyJMLIGUVJ+BIY4iPOnVN65ZUW1LBhQ/ruu+9oxoyZTlmMbdyMGV8bw3mEJ7F6AeIGITJXrlxh6d2rjmUMGTKYQ6MUYseDUSxd7Ga8hN9+293GDjciTh+kZAcOHDDhQ+zPciz83sm4IHpdunRmolyFY/t9SQsXLnKsHmwRYZPo5IwhYWtwY2zb6IFgA3eo1adNm+aoNnascBBPWokeJvYurP5ATLnPPlxo3PVRFahtIdWDHd/4YYujJDNSdXHGgIoV0kJrsj7HkzOGP0QPNimwTYEKBvdHRbrE2ULCzFjrF9U+wky0aFfVhInB1y0QNgaOKnBY8TToSnkI5fBsi/JG7WzHRPJ42iI0CwK0Wr2DrXmhBuv1wTNmbEC4B3tcL5kYoJq3GvlDnfs2S+3s51E2wsJAFYnkiej50iZfJXqQlpo4flxHez9BnaSPReWM4S/Ra/hSOSrxWB4ToggesFElhBBCKCGE6Ph6vLvzhf0+ccZg0zz6gr9C4Mnr134fjmNK9EygYA44HXb4bKT+YX2eSPSkf1uvSfgShPP46TtnZwx41MNR5tefd9PKnyI8XK3l+NtfrWX8m+0zc7HZCex8ETbKk/mB4Ga8/Nlu0v7bsJZp348LoudN34MtImwSscCM5IxxL5Yg2qJEz/5G/TwWogeP1759+7q+hgFHiY8//sgELI6KQMB2DDZk+/btMxI2T8Rq9OhRJi4fYrEhJpskEJUPPhhibPBwL4igNfCx5KtZsyYHRW5n6gcpE4IeL1wYYZQt+bAdMOB9KlasGBPPGUxAedKwJXj5IlSJPUBxXBA9xAEEoUa8v//8Z6itpncPYaeIz5jhnVjxw2DTqVNHglcuUlTv6W5Jvv1v0qQJvfTSi+YmEOdevd7xrYAA5MaEBJXe/t13PW6tRK8Mx4FDTD676hYhCF5jKQRW0XDWWLl4h9tgCZuZnKF3Y1FJlRGKAeFV4ASAgeioJeSHTNBOUg2fyYA88N4WpAXkJSqPNWSVwR/k9evxq1ykVooDGS1WOlckBwuZxKzG2bAPgoF9enZu+XaKuyeglIetECfYD30y4MdIX2aw5rXuy2SDr21MHrPCLQ6eNV/7nk+ZOGeIB2YNRo2QMHBaQD0xRnz07lw3Egx7RdgtzuBQH4iPiIR33oRJKUKEIHkier60yZ93K3hD7QbHGAmvgv4F73EY8tu9L1Ffeb/+Ej3YroLUOJFIlC8Jjk1N2XYUnwz8L3sG2z06JZ91KxJytAkkxR7wGW2DdMrukRuTNmHxht8j+oC171rrJftC9OChjdBIEjwdfQT9HJLWqAiESK7x+0bQZU9zmr/9VeoJ1SVUmFjYoV0IYu6JlMvCbsWi7fTb8ogPC0hZULkDI7tqV357wVTdetP3MD4hvAr6itvvnRdHCJoOr1ykqN6TtN2fbYINr4IAuggrgoDJElYDn0OLzgMVJAThPeBNC7K3fz+M3e/Qtm3cIS0BmhH4GOFa4PCxaNEiE/AXEqNatWqa2HRQD+J5TqpdvMgUKVK4nDJABMUxw+kl45NnIHsImIzgyNu2baULF8KZaGYzUsGiRYvSN998S7Nnz3a7PS6IHuo4ZsynrrqGhR0xdYKN4aZNEStO8SaGXSMkrAiY/OijbLjOHswIA4MviMQ20cOn3wYPHmz6A7ACZnGdEDMKkxMkQyd4IIZ4PwOr7zBBYbBDjCioIO2hLBAUFqELYIuEwRBBbyFhQlwrqGnwTUt7mBJXwGQuE5/9AqlCwGR4zWHChlTLU8BkfyR6wLYOOyOU4UC1+ETSIQ6wK6FREEBa9uUd1GebntJs24OJAtcxsSVjdW7mrGn4ayE5ePGUjD58J8LWVOLl4csesMmzekSiXS3aVzNlYXBFHnuyEmbY9aHt8jm41Ut3eVQhQ9UHlR8SJCSQlDglBJJF+AuUjYDRCKAKco42njl5ib0L+V1z3Dm7alfiugEHSCixRR8BscQnx9BHPBE9X9rkD9EDuWjDXzpAHUBeQY4gmcJEhrZ4CnQbE1IEbDHpd+hV12zxDOCHtGfHMbNIMgf8T0L+HOXF05lTkUP+IN8qXhhZvx2Nr2KAeMMDF5+mgzMPgonDjhLngD1+Y5AOWlNM2iR9F+WBWMJkQUiz9RnYF6KHTwGC5OG3gXBM8NqGqj86ooiFX7u3nzIkHGTPjCUswYS9q1WV629/lfpiLIIGAv0BfRVOGOj7Tgm/A/w+8V7xPg9y8GwEPcb4Bakgxjf5Xrj1/rgget72PVFJY+G4kZ3kMObk5++XI0boNf7KTnSE3NpOX/cTLNEDwXr33d6GbAE0rGLwubAJEyY6StiswGbNmpWdI9pR0aJF2O4nqbkENSTUkZIQrPjll1+mBg2ednnd4hlr1641auFmzZoZ0jd27BfmuXKfdSvBgTds2MDSxmHWS5H24eDx+uuvUZkyZVzPQyaQxF27dtOsWbPihUQPdQLhhXNJgQIFXHV1cgipU6cOfwKtuVGl4j6QZmBcpkxZDjVTMdaJHp4BHDNlysgkfj8O4zzhG7cwCIf9UTaeVOA1igTCgcHvlyU7HD+/hDyYWGF7h8jrkIZKwoSw+PtNbjGt5BpIV42nSxiCKOeQH964GHDtyR8yYC0Dgz5CwUDdjLbBmxgJX9OwTjJyD9RzNbl+GBStCRMzyKt86gySIxAuePpNY7st+8of9z7BzizV6xY30kussuV7t9ZygSHIWB6O4SehT3AddnOepEGywofTAWyQoKJySiBdeD4CYku7MUagHVCzQUIF0rdgNn/tZsNBVxHADJ8IAxlAwj2IAYc4b83bVTGxCz0RPeT3tk3+vlvYRDZ88XHKkz8EjzMJavkt3IYl87Y4SkZjQorkGSAH9ZqUYUlsBvNlCJy3S3Yg4QI5iyo52bqBDIFElKtU0Nh6Wu/H+92wZq9ZHFnPx6RNeMewxQRxRhgghAPylIToYUGAkEYgd0joFwhbsoj7klPftpaHPlHvuccoNF+I8ZLFNXsQaH/7q/U54n0K6Sf6a1QJYx8WgljEye8D+dGXwg6eMe/W/ruOC6KHOnnT95DPfGKSQ0FBi4EEoosxC218hMd5legZWGL+T1S3zZu34A5zm/Lnz28+FwZVnfWrEN48CWQOKlEkhE5xuh8SLKhOQQjDwsJY0nbBm6JNnoEDBzCZLMok72OCxMublCRJEvP9XsTtu3z5kgnK7FQvb8oKdB5IUoEPEiR34pVsfS7yQGKJQQvOKdgm5CQTFWKriXQpOjwgkcCnwjBp4KsD0UWGBynEZIFwGJB6WKUb0T0rJtfxXKiOkW7yit+TBAPXQfTQJkwA8PKE9DHQCfZ+ie8RUZC4qBKcLCCFhbQtugSJAKSzCJdzhp0srJ6bUd0LMosJGp9Is0oro7rHfs2XNtnvje4Y7YKEERIM9LmoPmwfXVm+XEebUrBqEAnPju5d+VI27BAzMub4ogkkbXCK8WSH6VO5DplBLtGPPC0U5BYheh/d+7QX1PPA4CQHrLZ+FULyR7UFmYNkHAntc7rf3/6KMuWLF77Y2uJ3kSlLGjMegRidYWLtVC+UH9fJm76HMQuLDcxlp45fDMqclmAleiB6+N5sfE0PP5zPfB0DX2fo2LFTtFLG+NoOrVfsIuAP0YvdGmhpioAiEJ8QsBK9YJFpf9oPByWozrFwhPMYJHOagoOAEr3g4OzVUyC9QnDkrFmzsCNGe8qbNy9Nnz6dvv9+nlf3BzITbA6fe66JV4/YunUrfzf4Y6/yaibfEFCi5xtemlsReNARiM9EDxKu5CmSUIaMqY0jBiRZnr6+E+z3BJvDSk8W9eqxcBKCFPJ+TUr04tGbK1WqFHsC93HVCI4ViLeHYMdxneAtDNs6b1J4+AXjFOJNXs3jGwIw8od9x3GOPYWAoZoUAUUgYSMQn4keHA1e4hiHkmDnC2/x+DB2wbs9C5tMeJOgnneyUfbm3viQJ8ERvX//+xVjk4evVTiFNYnLlwIyVafOU4TPleErF1u2bI13dYxLfPTZioAioAgoAu4I1GpQ0th3wos+vqlD8W3mshXzG1tV4/3PDmTROYa4t06PYgOBBEf0YgM0LUMRUAQUAUVAEVAEFIH7AYGAEL1GjRoZD8qLF8Np+/YddPGic3iB+wEgraMioAgoAoqAIqAIKAL3KwIBIXpTpkw2X34AKPBsHT9+PK1cuep+xUjrrQgoAoqAIqAIKAKKwH2JQECIHr7qgPhoFSqUp5YtWxqJXps2bYMSL+a+fAtaaUVAEVAEFAFFQBFQBAKAQECInrWe+GZpSEgIgeiFh4dbL+m+IqAIKAKKgCKgCCgCikAAEQg40fvwww/Mp6569OhpvmwQwLZo0YqAIqAIKAKKgCKgCCgCFgQCTvQGDx5EhQsX5u+SvkP4zJgmRUARUAQUAUVAEVAEFIHgIKBELzg461MUAUVAEVAEFAFFQBEIOgIBJ3r9+/en4sUfoSFDhtDmzVuC3kB9oCKgCCgCioAioAgoAgkVgYATva5du1DlypVp/vwfaOrUqQkVZ223IqAIKAKKgCKgCCgCQUcg4ESvdOlS1LNnT/PZsQULFtK6devo/PnzdPbs2XjxDdegI64PVAQUAUVAEVAEFAFFIEgIBJzooR05cuSggQMHUPr06V3NUucMFxS6owgoAoqAIqAIKAKKQEAQCDjRy5o1K3Xr1o0KFSpIx48fp/Xr19O5c+dp9erVdOnSpYA0SgtVBBQBRUARUAQUAUVAESAKONFr3bo11atXl7Zu3coOGR/Q7du3FXdFQBFQBBQBRUARUAQUgSAgEHCi16dPH4Kd3vDhI4x9XhDapI9QBBQBRUARUAQUAUVAEWAEAk70JGBy7969ad++/Qq6IqAIKAKKgCKgCCgCikCQEAga0VPniyC9UX2MIqAIKAKKgCKgCCgC9xAIONEbMmQwO2IU0k+gaZdTBBQBRUARUAQUAUUgyAgEnOiNHDmCcuXKRZ06dabTp08HuXn6OEVAEVAEFAFFQBFQBBIuAgElejlz5mQnjGGUKFEiat68Bd26dSvhIq0tVwQUAUVAEVAEFAFFIMgIBITo9ezZgzJlykShoaGUNGlSWrJkCU2YMDHITdPHKQKKgCKgCCgCioAikLARCAjRGzRooPm82YUL4bRp05+0Zs2v+rmzhN3PtPWKgCKgCCgCioAiEAcIBIToxUE79JGKgCKgCCgCioAioAgoAjYElOjZANFDRUARUAQUAUVAEVAEHhQElOg9KG9S26EIKAKKgCKgCCgCioANASV6NkD0UBFQBBQBRUARUAQUgQcFASV6D8qb1HYoAoqAIqAIKAKKgCJgQ0CJng0QPVQEFAFFQBFQBBQBReBBQUCJ3oPyJrUdioAioAgoAoqAIqAI2BBQomcDRA8VAUVAEVAEFAFFQBF4UBBQovegvElthyKgCCgCioAioAgoAjYElOjZANFDRUARUAQUAUVAEVAEHhQE/g/Rxa7mE7g5bAAAAABJRU5ErkJggg==;" vertex="1" parent="yK1BvCWjgx7OJvuE3ETC-42">
          <mxGeometry y="35" width="250" height="40.22" as="geometry" />
        </mxCell>
        <mxCell id="yK1BvCWjgx7OJvuE3ETC-41" value="Mapping Template" style="text;html=1;align=center;verticalAlign=middle;whiteSpace=wrap;rounded=0;fontStyle=1" vertex="1" parent="yK1BvCWjgx7OJvuE3ETC-42">
          <mxGeometry width="130" height="30" as="geometry" />
        </mxCell>
        <mxCell id="yK1BvCWjgx7OJvuE3ETC-43" style="edgeStyle=orthogonalEdgeStyle;rounded=0;orthogonalLoop=1;jettySize=auto;html=1;entryX=0;entryY=0.5;entryDx=0;entryDy=0;" edge="1" parent="1" source="yK1BvCWjgx7OJvuE3ETC-26" target="yK1BvCWjgx7OJvuE3ETC-41">
          <mxGeometry relative="1" as="geometry" />
        </mxCell>
        <mxCell id="yK1BvCWjgx7OJvuE3ETC-44" value="" style="group" vertex="1" connectable="0" parent="1">
          <mxGeometry x="1240" y="320" width="120" height="120" as="geometry" />
        </mxCell>
        <mxCell id="yK1BvCWjgx7OJvuE3ETC-45" value="" style="rounded=1;whiteSpace=wrap;html=1;" vertex="1" parent="yK1BvCWjgx7OJvuE3ETC-44">
          <mxGeometry width="119.99999999999996" height="120" as="geometry" />
        </mxCell>
        <mxCell id="yK1BvCWjgx7OJvuE3ETC-46" value="Requested Lambda" style="sketch=0;points=[[0,0,0],[0.25,0,0],[0.5,0,0],[0.75,0,0],[1,0,0],[0,1,0],[0.25,1,0],[0.5,1,0],[0.75,1,0],[1,1,0],[0,0.25,0],[0,0.5,0],[0,0.75,0],[1,0.25,0],[1,0.5,0],[1,0.75,0]];outlineConnect=0;fontColor=#232F3E;fillColor=#ED7100;strokeColor=#ffffff;dashed=0;verticalLabelPosition=bottom;verticalAlign=top;align=center;html=1;fontSize=12;fontStyle=0;aspect=fixed;shape=mxgraph.aws4.resourceIcon;resIcon=mxgraph.aws4.lambda;" vertex="1" parent="yK1BvCWjgx7OJvuE3ETC-44">
          <mxGeometry x="20" y="10" width="80" height="80" as="geometry" />
        </mxCell>
        <mxCell id="yK1BvCWjgx7OJvuE3ETC-48" style="edgeStyle=orthogonalEdgeStyle;rounded=0;orthogonalLoop=1;jettySize=auto;html=1;" edge="1" parent="1" source="yK1BvCWjgx7OJvuE3ETC-40" target="yK1BvCWjgx7OJvuE3ETC-45">
          <mxGeometry relative="1" as="geometry" />
        </mxCell>
        <mxCell id="yK1BvCWjgx7OJvuE3ETC-50" value="Response" style="edgeStyle=orthogonalEdgeStyle;rounded=0;orthogonalLoop=1;jettySize=auto;html=1;exitX=0;exitY=0.5;exitDx=0;exitDy=0;entryX=0.25;entryY=1;entryDx=0;entryDy=0;" edge="1" parent="1" source="yK1BvCWjgx7OJvuE3ETC-45" target="yK1BvCWjgx7OJvuE3ETC-53">
          <mxGeometry relative="1" as="geometry">
            <mxPoint x="1319" y="440" as="sourcePoint" />
            <mxPoint x="100" y="240" as="targetPoint" />
            <Array as="points">
              <mxPoint x="23" y="380" />
            </Array>
          </mxGeometry>
        </mxCell>
        <mxCell id="yK1BvCWjgx7OJvuE3ETC-51" value="Invalid player_id" style="rounded=1;whiteSpace=wrap;html=1;" vertex="1" parent="1">
          <mxGeometry x="940" y="305" width="110" height="30" as="geometry" />
        </mxCell>
        <mxCell id="yK1BvCWjgx7OJvuE3ETC-56" value="" style="group" vertex="1" connectable="0" parent="1">
          <mxGeometry x="-10" y="117.11" width="130" height="161" as="geometry" />
        </mxCell>
        <mxCell id="yK1BvCWjgx7OJvuE3ETC-53" value="" style="rounded=0;whiteSpace=wrap;html=1;" vertex="1" parent="yK1BvCWjgx7OJvuE3ETC-56">
          <mxGeometry width="130" height="161" as="geometry" />
        </mxCell>
        <mxCell id="yK1BvCWjgx7OJvuE3ETC-54" value="Client" style="outlineConnect=0;dashed=0;verticalLabelPosition=bottom;verticalAlign=top;align=center;html=1;shape=mxgraph.aws3.management_console;fillColor=#D2D3D3;gradientColor=none;" vertex="1" parent="yK1BvCWjgx7OJvuE3ETC-56">
          <mxGeometry x="33.5" y="48.5" width="63" height="63" as="geometry" />
        </mxCell>
      </root>
    </mxGraphModel>
  </diagram>
</mxfile>
